<?xml version="1.0" encoding="UTF-8"?> <!-- Generator: Adobe Illustrator 21.0.0, SVG Export Plug-In . SVG Version: 6.00 Build 0) --> <svg xmlns="http://www.w3.org/2000/svg" xmlns:xlink="http://www.w3.org/1999/xlink" version="1.1" id="Layer_2" x="0px" y="0px" viewBox="0 0 620.3 386.5" style="enable-background:new 0 0 620.3 386.5;" xml:space="preserve"> <style type="text/css"> .st0{fill:#D8DBDE;} .st1{fill:#F4F5F6;} .st2{fill:#465565;} .st3{fill:#FFFFFF;} .st4{fill:#E0E0E0;} .st5{fill:#E8505B;} .st6{fill:#C35865;} .st7{fill:#D6D9DD;} .st8{fill:#495662;} .st9{fill:#AA4F5F;} .st10{fill:#4A5662;} .st11{fill:#6D7680;} .st12{fill:#EECFAA;} .st13{fill:#E9B983;} .st14{fill:#6C7680;} .st15{fill:#3E4952;} .st16{fill:#4A82CF;} .st17{fill:#365F88;} .st18{fill:#262424;} .st19{fill:#7DC1DD;} .st20{fill:#8F979E;} .st21{fill:#66ADBD;} </style> <g> <path class="st0" d="M578.2,153c1.9-1.1,3.9-2,5.9-2.6l1.2-5.9l9.9-0.2l1.4,5.8c2.1,0.5,4.1,1.3,6,2.4l5-3.3l7.1,6.9l-3.1,5.1 c1.1,1.9,2,3.9,2.6,5.9l5.9,1.2l0.2,9.9l-5.8,1.4c-0.5,2.1-1.3,4.1-2.4,6l3.3,5l-6.9,7.1l-5.1-3.1c-1.9,1.1-3.9,2-5.9,2.6l-1.2,5.9 l-9.9,0.2l-1.4-5.8c-2.1-0.5-4.1-1.3-6-2.4l-5,3.3l-7.1-6.9l3.1-5.1c-1.1-1.9-2-3.9-2.6-5.9l-5.9-1.2l-0.2-9.9l5.8-1.4 c0.5-2.1,1.3-4.1,2.4-6l-3.3-5l6.9-7.1L578.2,153z M583.5,166.2c-4.1,4.2-4,11,0.3,15c4.2,4.1,11,4,15-0.3c4.1-4.2,4-11-0.3-15 C594.3,161.8,587.5,162,583.5,166.2"></path> <path class="st0" d="M532,61.5c0.8-0.5,1.6-0.8,2.4-1l0.5-2.4l4-0.1l0.6,2.3c0.8,0.2,1.7,0.5,2.4,1l2-1.3l2.9,2.8l-1.3,2.1 c0.5,0.8,0.8,1.6,1,2.4l2.4,0.5l0.1,4l-2.3,0.6c-0.2,0.8-0.5,1.7-1,2.4l1.3,2l-2.8,2.9l-2.1-1.3c-0.8,0.5-1.6,0.8-2.4,1l-0.5,2.4 l-4,0.1l-0.6-2.3c-0.8-0.2-1.7-0.5-2.4-1l-2,1.3l-2.9-2.8l1.3-2.1c-0.5-0.8-0.8-1.6-1-2.4l-2.4-0.5l-0.1-4l2.3-0.6 c0.2-0.8,0.5-1.7,1-2.4l-1.3-2l2.8-2.9L532,61.5z M534.2,66.8c-1.6,1.7-1.6,4.4,0.1,6.1c1.7,1.6,4.4,1.6,6.1-0.1 c1.6-1.7,1.6-4.4-0.1-6.1C538.5,65.1,535.8,65.1,534.2,66.8"></path> <path class="st0" d="M500.9,97c1.2-0.7,2.5-1.3,3.8-1.7l0.8-3.8l6.4-0.1l0.9,3.8c1.3,0.3,2.6,0.8,3.9,1.5l3.2-2.1l4.6,4.4l-2,3.3 c0.7,1.2,1.3,2.5,1.7,3.8l3.8,0.8l0.1,6.4l-3.8,0.9c-0.3,1.3-0.8,2.6-1.5,3.9l2.1,3.2l-4.4,4.6l-3.3-2c-1.2,0.7-2.5,1.3-3.8,1.7 l-0.8,3.8l-6.4,0.1l-0.9-3.8c-1.3-0.3-2.6-0.8-3.9-1.5l-3.2,2.1l-4.6-4.4l2-3.3c-0.7-1.2-1.3-2.5-1.7-3.8l-3.8-0.8l-0.1-6.4 l3.8-0.9c0.3-1.3,0.8-2.6,1.5-3.9l-2.1-3.2l4.4-4.6L500.9,97z M504.4,105.5c-2.6,2.7-2.6,7.1,0.2,9.7c2.7,2.6,7.1,2.6,9.7-0.2 c2.6-2.7,2.6-7.1-0.2-9.7C511.3,102.7,507,102.8,504.4,105.5"></path> <path class="st1" d="M471.2,283.6c0,0,1.1-1.6,4-3.6c2.9-1.9,7.8-4,14.2-3.4c3.1,0.3,6.5,1.4,9.6,3.4c3.1,2.1,6,5,7.8,8.8 c1,1.9,1.6,3.9,2,6.1c0.4,2.2,0.4,4.4,0.1,6.7c-0.6,4.5-2.7,9-6,12.5c-3.4,3.5-7.8,5.8-12.3,6.5c-2.2,0.4-4.5,0.4-6.7,0.1 c-2.2-0.3-4.3-0.9-6.2-1.8c-3.9-1.7-6.9-4.5-9-7.5c-2.2-3-3.3-6.4-3.8-9.5c-0.9-6.3,1.1-11.4,2.9-14.3 C469.6,284.8,471.2,283.6,471.2,283.6c0.1,0.1-1.3,1.4-3,4.4c-1.6,2.9-3.4,7.9-2.4,13.9c0.5,3,1.6,6.2,3.7,9c2.1,2.8,5,5.5,8.7,7 c1.8,0.8,3.8,1.4,5.9,1.6c2.1,0.3,4.2,0.3,6.3-0.1c4.3-0.7,8.4-2.9,11.6-6.1c3.2-3.3,5.2-7.5,5.7-11.8c0.3-2.1,0.3-4.3-0.1-6.3 c-0.3-2-0.9-4-1.8-5.8c-1.7-3.6-4.4-6.4-7.3-8.4c-2.9-2-6.2-3-9.2-3.4c-6.1-0.8-10.9,1.1-13.8,2.9 C472.5,282.2,471.3,283.7,471.2,283.6"></path> <path class="st1" d="M460.4,256.6c0,0-0.2-0.1-0.7-0.4c-0.5-0.3-1.2-0.7-2-1.2c-1.8-1.1-4.5-2.6-7.9-4.7l0.2,0 c-3.6,3.8-8.3,8.7-14,14.7l0-0.4c2,3.1,4.3,6.5,6.8,10.2l0.1,0.2l-0.1,0.2c-2,3.6-3.7,7.7-4.8,12.2l-0.1,0.2l-0.2,0.1 c-3.7,0.9-7.7,1.9-11.9,3l0.3-0.4c0.1,6.4,0.3,13.1,0.4,20.3l-0.4-0.5c3.7,0.8,7.8,1.6,12,2.5l0.3,0.1l0.1,0.3 c1.1,3.9,2.9,8.1,5.2,12l0.2,0.3l-0.2,0.3c-2,3.2-4.1,6.8-6.3,10.5l-0.1-0.7c4.6,4.4,9.5,9.2,14.6,14.1l-0.7-0.1 c3.2-2.1,6.7-4.4,10.2-6.7l0.3-0.2l0.3,0.2c3.6,2,7.7,3.7,12.1,4.8l0.4,0.1l0.1,0.4c0.9,3.7,1.9,7.8,2.9,11.9l-0.6-0.5 c6.4-0.1,13.3-0.2,20.3-0.4l-0.6,0.5c0.8-3.8,1.6-7.9,2.5-12l0.1-0.4l0.4-0.1c4-1.1,8.1-2.9,11.9-5.2l0,0l0.3-0.2l0.3,0.2 c3.5,2.1,7,4.2,10.5,6.3L522,348c4.8-4.9,9.4-9.8,14.1-14.6l-0.1,0.8c-2.3-3.4-4.5-6.9-6.7-10.2l-0.2-0.3l0.2-0.3 c2.2-3.9,3.8-8,4.8-12.1l0.1-0.4l0.4-0.1c4-1,8-2,11.9-2.9l-0.5,0.6c-0.1-6.9-0.2-13.7-0.3-20.3l0.5,0.6c-4.1-0.9-8.1-1.7-12-2.5 l-0.3-0.1l-0.1-0.3c-1.2-4.3-3-8.3-5.2-12l-0.2-0.3l0.2-0.3c2.2-3.6,4.3-7.1,6.4-10.5l0.1,0.6c-5.1-5-9.9-9.6-14.5-14.1l0.6,0.1 c-3.6,2.3-7,4.6-10.3,6.7l-0.2,0.1l-0.2-0.1c-4.1-2.3-8.2-3.8-12.2-4.8l-0.2-0.1l-0.1-0.2c-1-4.3-2-8.2-2.9-11.9l0.4,0.3 c-7.8,0.1-14.5,0.2-20.3,0.3l0.3-0.2c-1,4.8-1.9,8.7-2.6,12l0,0.1l-0.1,0c-4.3,1.2-7.3,2.6-9.3,3.6c-0.9,0.5-1.7,0.9-2.2,1.1 C460.6,256.5,460.4,256.6,460.4,256.6c0,0,0.2-0.2,0.7-0.5c0.5-0.3,1.2-0.7,2.1-1.2c1.9-1,4.9-2.5,9.2-3.8l-0.1,0.2 c0.7-3.3,1.5-7.2,2.4-12l0-0.2l0.2,0c5.7-0.1,12.4-0.3,20.3-0.4l0.3,0l0.1,0.3c0.9,3.7,1.9,7.6,3,11.9l-0.3-0.3 c4.1,1,8.2,2.5,12.4,4.8l-0.5,0c3.3-2.1,6.6-4.4,10.2-6.7l0.3-0.2l0.3,0.3c4.6,4.4,9.5,9.1,14.6,14l0.3,0.3l-0.2,0.4 c-2.1,3.4-4.2,6.9-6.3,10.5l0-0.6c2.3,3.7,4.1,7.9,5.3,12.2l-0.4-0.4c3.9,0.8,7.9,1.6,12,2.5l0.4,0.1l0,0.5 c0.1,6.6,0.2,13.3,0.4,20.3l0,0.5l-0.5,0.1c-3.9,1-7.9,1.9-11.9,2.9l0.4-0.4c-1.1,4.3-2.7,8.5-4.9,12.4l0-0.6 c2.2,3.4,4.5,6.8,6.7,10.2l0.3,0.4l-0.3,0.4c-4.6,4.8-9.3,9.6-14.1,14.6l-0.3,0.4l-0.4-0.3c-3.5-2.1-7-4.2-10.5-6.3l0.6,0l0,0 c-3.9,2.4-8.2,4.2-12.3,5.3l0.4-0.5c-0.9,4.1-1.7,8.2-2.5,12l-0.1,0.5l-0.5,0c-7,0.1-13.8,0.2-20.3,0.3l-0.5,0l-0.1-0.5 c-1-4.1-2-8.2-2.9-11.9l0.4,0.4c-4.5-1.1-8.8-2.9-12.4-4.9l0.6,0c-3.5,2.3-7.1,4.6-10.2,6.7l-0.4,0.3l-0.3-0.3 c-5.1-4.9-10-9.7-14.6-14.1l-0.3-0.3l0.2-0.4c2.2-3.6,4.4-7.2,6.4-10.5v0.6c-2.4-4-4.2-8.3-5.3-12.2l0.4,0.4 c-4.2-0.9-8.3-1.7-12-2.5l-0.4-0.1l0-0.4c-0.1-7.1-0.2-13.9-0.3-20.3l0-0.4l0.3-0.1c4.2-1,8.2-2,11.9-2.9l-0.3,0.3 c1.1-4.6,2.9-8.7,4.9-12.4l0,0.4c-2.4-3.7-4.6-7.2-6.7-10.3l-0.1-0.2l0.2-0.2c5.8-5.9,10.5-10.8,14.2-14.5l0.1-0.1l0.1,0.1 c3.3,2.1,5.9,3.7,7.7,4.8c0.8,0.5,1.5,0.9,2,1.3C460.1,256.4,460.4,256.6,460.4,256.6"></path> <path class="st0" d="M129.9,47.8c2-1.2,4.2-2.1,6.4-2.8l1.3-6.3l10.7-0.2l1.5,6.3c2.2,0.6,4.4,1.4,6.5,2.5l5.4-3.5l7.7,7.4 l-3.3,5.5c1.2,2,2.1,4.2,2.8,6.4l6.3,1.3l0.2,10.7l-6.3,1.5c-0.6,2.2-1.4,4.4-2.5,6.5l3.5,5.4l-7.4,7.7l-5.5-3.3 c-2,1.2-4.2,2.1-6.4,2.8l-1.3,6.3l-10.7,0.2l-1.5-6.3c-2.2-0.6-4.4-1.4-6.5-2.5l-5.4,3.5l-7.7-7.4l3.3-5.5c-1.2-2-2.1-4.2-2.8-6.4 l-6.3-1.3l-0.2-10.7L118,64c0.6-2.2,1.4-4.4,2.5-6.5l-3.5-5.4l7.4-7.7L129.9,47.8z M135.6,62c-4.4,4.6-4.3,11.8,0.3,16.2 c4.6,4.4,11.8,4.3,16.2-0.3s4.3-11.8-0.3-16.2C147.3,57.3,140,57.4,135.6,62"></path> <path class="st0" d="M23.4,168.1c1.5-0.9,3-1.5,4.6-2l0.9-4.6l7.7-0.1l1.1,4.5c1.6,0.4,3.2,1,4.7,1.8l3.9-2.6l5.5,5.4l-2.4,4 c0.9,1.5,1.5,3,2,4.6l4.6,0.9l0.1,7.7l-4.5,1.1c-0.4,1.6-1,3.2-1.8,4.7l2.6,3.9L47,203l-4-2.4c-1.5,0.9-3,1.5-4.6,2l-0.9,4.6 l-7.7,0.1l-1.1-4.5c-1.6-0.4-3.2-1-4.7-1.8l-3.9,2.6l-5.5-5.4l2.4-4c-0.9-1.5-1.5-3-2-4.6l-4.6-0.9l-0.1-7.7l4.5-1.1 c0.4-1.6,1-3.2,1.8-4.7l-2.6-3.9l5.4-5.5L23.4,168.1z M27.5,178.4c-3.2,3.3-3.1,8.5,0.2,11.7c3.3,3.2,8.5,3.1,11.7-0.2 c3.2-3.3,3.1-8.5-0.2-11.7C35.9,175,30.6,175.1,27.5,178.4"></path> <path class="st0" d="M91.6,5.6c1.2-0.7,2.5-1.3,3.8-1.7l0.8-3.8l6.4-0.1l0.9,3.8c1.3,0.3,2.6,0.8,3.9,1.5l3.2-2.1l4.6,4.4l-2,3.3 c0.7,1.2,1.3,2.5,1.7,3.8l3.8,0.8l0.1,6.4l-3.8,0.9c-0.3,1.3-0.8,2.6-1.5,3.9l2.1,3.2l-4.4,4.6l-3.3-2c-1.2,0.7-2.5,1.3-3.8,1.7 l-0.8,3.8l-6.4,0.1L96,34.3c-1.3-0.3-2.6-0.8-3.9-1.5l-3.2,2.1l-4.6-4.4l2-3.3c-0.7-1.2-1.3-2.5-1.7-3.8l-3.8-0.8l-0.1-6.4l3.8-0.9 c0.3-1.3,0.8-2.6,1.5-3.9l-2.1-3.2l4.4-4.6L91.6,5.6z M95,14.1c-2.6,2.7-2.6,7.1,0.2,9.7c2.7,2.6,7.1,2.6,9.7-0.2 c2.6-2.7,2.6-7.1-0.2-9.7C102,11.3,97.6,11.3,95,14.1"></path> <path class="st1" d="M52.5,88.9c0,0,1-1.4,3.4-3c2.4-1.6,6.7-3.4,12-2.8c2.6,0.3,5.5,1.2,8.2,2.9c2.6,1.7,5.1,4.2,6.6,7.5 c0.8,1.6,1.4,3.3,1.7,5.2c0.3,1.8,0.4,3.8,0.1,5.7c-0.5,3.9-2.3,7.7-5.1,10.6c-2.9,2.9-6.6,4.9-10.5,5.5c-1.9,0.3-3.8,0.4-5.7,0.1 c-1.8-0.2-3.6-0.7-5.2-1.5c-3.3-1.4-5.9-3.8-7.7-6.4c-1.8-2.6-2.8-5.4-3.2-8.1c-0.8-5.4,0.9-9.7,2.4-12.1 C51.2,90,52.5,88.9,52.5,88.9c0.1,0.1-1.1,1.2-2.5,3.7c-1.4,2.5-2.9,6.7-2,11.8c0.4,2.5,1.4,5.2,3.2,7.7c1.8,2.4,4.3,4.6,7.4,6 c1.5,0.7,3.2,1.2,5,1.4c1.7,0.2,3.6,0.2,5.4-0.1c3.6-0.6,7.1-2.4,9.9-5.2c2.7-2.8,4.4-6.4,4.9-10.1c0.3-1.8,0.2-3.6-0.1-5.4 c-0.3-1.7-0.8-3.4-1.6-4.9c-1.4-3.1-3.8-5.5-6.2-7.2c-2.5-1.7-5.3-2.6-7.8-2.9c-5.2-0.6-9.3,1-11.7,2.5 C53.7,87.8,52.6,89,52.5,88.9"></path> <path class="st1" d="M43.4,66c0,0-0.2-0.1-0.6-0.3c-0.4-0.2-1-0.6-1.7-1c-1.6-0.9-3.8-2.2-6.7-4l0.2,0c-3,3.2-7,7.4-11.9,12.5 l0-0.3c1.7,2.6,3.7,5.6,5.7,8.7l0.1,0.2l-0.1,0.2c-1.7,3.1-3.1,6.5-4,10.4l0,0.2l-0.2,0.1c-3.1,0.8-6.6,1.6-10.1,2.5l0.3-0.4 c0.1,5.4,0.2,11.2,0.3,17.2l-0.3-0.4c3.2,0.6,6.6,1.4,10.2,2.1l0.3,0.1l0.1,0.3c0.9,3.3,2.4,6.9,4.4,10.2l0.1,0.2l-0.1,0.2 c-1.7,2.8-3.5,5.8-5.4,8.9l-0.1-0.6c3.9,3.8,8.1,7.8,12.4,11.9l-0.6-0.1c2.7-1.8,5.7-3.7,8.7-5.7l0.3-0.2l0.3,0.1 c3,1.7,6.6,3.1,10.3,4.1l0.3,0.1l0.1,0.3c0.8,3.2,1.6,6.6,2.5,10.1l-0.5-0.4c5.4-0.1,11.3-0.2,17.2-0.3l-0.5,0.4 c0.7-3.2,1.4-6.7,2.1-10.2l0.1-0.3l0.3-0.1c3.4-1,6.9-2.4,10.2-4.4l0,0l0.3-0.2l0.3,0.2c3,1.8,6,3.6,8.9,5.4l-0.7,0.1 c4-4.2,8-8.3,12-12.4l-0.1,0.7c-1.9-2.9-3.8-5.8-5.7-8.7l-0.2-0.3l0.2-0.3c1.8-3.3,3.2-6.8,4.1-10.3l0.1-0.3l0.3-0.1 c3.4-0.8,6.8-1.7,10.1-2.5L116,110c-0.1-5.9-0.2-11.6-0.3-17.2l0.4,0.5c-3.5-0.7-6.8-1.4-10.2-2.1l-0.3-0.1l-0.1-0.3 c-1-3.6-2.5-7.1-4.4-10.2l-0.1-0.2l0.1-0.2c1.9-3,3.7-6,5.4-8.9l0.1,0.5c-4.3-4.2-8.5-8.2-12.4-12l0.5,0c-3.1,2-5.9,3.9-8.7,5.7 l-0.2,0.1l-0.2-0.1c-3.5-1.9-6.9-3.3-10.3-4.1l-0.2-0.1l0-0.2c-0.9-3.7-1.7-7-2.4-10.1l0.3,0.2c-6.7,0.1-12.3,0.2-17.2,0.2l0.2-0.2 c-0.9,4.1-1.6,7.4-2.2,10.2l0,0.1l-0.1,0c-3.6,1-6.2,2.2-7.9,3c-0.8,0.4-1.4,0.7-1.9,1C43.6,65.9,43.4,66,43.4,66 c0,0,0.2-0.1,0.6-0.4c0.4-0.2,1-0.6,1.8-1c1.6-0.9,4.2-2.1,7.9-3.2l-0.1,0.1c0.6-2.8,1.2-6.1,2.1-10.2l0-0.2l0.2,0 c4.9-0.1,10.5-0.2,17.2-0.4l0.2,0l0.1,0.2c0.8,3.1,1.6,6.4,2.5,10.1l-0.3-0.3c3.5,0.8,7,2.2,10.5,4.1l-0.4,0 c2.8-1.8,5.6-3.7,8.7-5.7l0.3-0.2l0.2,0.2c3.9,3.8,8,7.7,12.4,11.9l0.3,0.2l-0.2,0.3c-1.7,2.9-3.5,5.8-5.4,8.9v-0.5 c1.9,3.2,3.5,6.7,4.5,10.4l-0.4-0.3c3.3,0.7,6.7,1.4,10.2,2.1l0.4,0.1l0,0.4c0.1,5.6,0.2,11.3,0.3,17.2l0,0.4l-0.4,0.1 c-3.3,0.8-6.7,1.6-10.1,2.5l0.4-0.4c-0.9,3.6-2.3,7.2-4.2,10.6l0-0.5c1.9,2.9,3.8,5.8,5.7,8.7l0.2,0.4l-0.3,0.3 c-3.9,4.1-7.9,8.2-12,12.4l-0.3,0.3l-0.4-0.2c-2.9-1.8-5.9-3.6-8.9-5.4h0.5l0,0c-3.3,2-6.9,3.5-10.4,4.5l0.4-0.4 c-0.7,3.5-1.5,7-2.1,10.2l-0.1,0.4l-0.4,0c-5.9,0.1-11.8,0.2-17.2,0.3l-0.4,0l-0.1-0.4c-0.9-3.5-1.7-6.9-2.5-10.1L55,144 c-3.8-0.9-7.5-2.4-10.6-4.2l0.5,0c-3,2-6,3.9-8.7,5.7l-0.3,0.2l-0.3-0.3c-4.3-4.2-8.5-8.2-12.4-12l-0.3-0.3l0.2-0.3 c1.9-3.1,3.7-6.1,5.4-8.9v0.5c-2.1-3.4-3.6-7-4.5-10.4l0.3,0.3c-3.6-0.7-7-1.5-10.2-2.1l-0.3-0.1l0-0.3c-0.1-6-0.2-11.8-0.3-17.2 l0-0.3l0.3-0.1c3.5-0.9,7-1.7,10.1-2.4l-0.3,0.3c1-3.9,2.4-7.4,4.2-10.5l0,0.3c-2-3.1-3.9-6.1-5.7-8.7L22.2,73l0.2-0.2 c4.9-5,8.9-9.2,12-12.3l0.1-0.1l0.1,0.1c2.8,1.8,5,3.1,6.6,4.1c0.7,0.5,1.3,0.8,1.7,1.1C43.2,65.9,43.4,66,43.4,66"></path> <path class="st0" d="M425.5,78.8h-348c-6,0-10.9,4.9-10.9,10.9v245.8c0,6,4.9,10.9,10.9,10.9h133.6c0,0,8.5,26.3-17.8,39.9h124.9 c0,0-29.7-10.2-22.1-39.9h129.5c6,0,10.9-4.9,10.9-10.9V89.7C436.4,83.7,431.5,78.8,425.5,78.8"></path> <path class="st2" d="M256.2,320.5c4.7,6.8-2.7,14.2-9.4,9.4c-0.2-0.2-0.4-0.4-0.6-0.6c-4.7-6.8,2.7-14.2,9.4-9.4 C255.8,320.1,256,320.3,256.2,320.5"></path> <path class="st3" d="M430.4,301.4H72.6V93c0-5.4,4.3-9.7,9.7-9.7h338.4c5.4,0,9.7,4.3,9.7,9.7V301.4z"></path> <path class="st2" d="M363.3,346.4c0,0.1-49.5,0.2-110.6,0.2c-61.1,0-110.6-0.1-110.6-0.2c0-0.1,49.5-0.2,110.6-0.2 C313.8,346.2,363.3,346.3,363.3,346.4"></path> <rect x="80.5" y="92.3" class="st2" width="342" height="209.1"></rect> <path class="st4" d="M106.7,301.3c-0.2,0-0.3-41.1-0.3-91.8c0-50.7,0.1-91.8,0.3-91.8c0.2,0,0.3,41.1,0.3,91.8 C107,260.2,106.9,301.3,106.7,301.3"></path> <path class="st4" d="M99.6,125.4c0,0.2-2.6,0.3-5.7,0.3c-3.2,0-5.7-0.1-5.7-0.3c0-0.2,2.6-0.3,5.7-0.3 C97.1,125.1,99.6,125.3,99.6,125.4"></path> <path class="st4" d="M99.6,137.5c0,0.2-2.6,0.3-5.7,0.3c-3.2,0-5.7-0.1-5.7-0.3c0-0.2,2.6-0.3,5.7-0.3 C97.1,137.2,99.6,137.4,99.6,137.5"></path> <path class="st4" d="M99.6,149.6c0,0.2-2.6,0.3-5.7,0.3c-3.2,0-5.7-0.1-5.7-0.3c0-0.2,2.6-0.3,5.7-0.3 C97.1,149.3,99.6,149.5,99.6,149.6"></path> <path class="st4" d="M99.6,161.7c0,0.2-2.6,0.3-5.7,0.3c-3.2,0-5.7-0.1-5.7-0.3c0-0.2,2.6-0.3,5.7-0.3 C97.1,161.4,99.6,161.6,99.6,161.7"></path> <path class="st4" d="M99.6,173.8c0,0.2-2.6,0.3-5.7,0.3c-3.2,0-5.7-0.1-5.7-0.3c0-0.2,2.6-0.3,5.7-0.3 C97.1,173.5,99.6,173.7,99.6,173.8"></path> <path class="st4" d="M99.6,185.9c0,0.2-2.6,0.3-5.7,0.3c-3.2,0-5.7-0.1-5.7-0.3c0-0.2,2.6-0.3,5.7-0.3 C97.1,185.6,99.6,185.8,99.6,185.9"></path> <path class="st4" d="M99.6,198c0,0.2-2.6,0.3-5.7,0.3c-3.2,0-5.7-0.1-5.7-0.3c0-0.2,2.6-0.3,5.7-0.3 C97.1,197.7,99.6,197.9,99.6,198"></path> <path class="st4" d="M99.6,210.1c0,0.2-2.6,0.3-5.7,0.3c-3.2,0-5.7-0.1-5.7-0.3c0-0.2,2.6-0.3,5.7-0.3 C97.1,209.8,99.6,209.9,99.6,210.1"></path> <path class="st4" d="M99.6,222.2c0,0.2-2.6,0.3-5.7,0.3c-3.2,0-5.7-0.1-5.7-0.3c0-0.2,2.6-0.3,5.7-0.3 C97.1,221.9,99.6,222,99.6,222.2"></path> <path class="st4" d="M99.6,234.3c0,0.2-2.6,0.3-5.7,0.3c-3.2,0-5.7-0.1-5.7-0.3c0-0.2,2.6-0.3,5.7-0.3 C97.1,234,99.6,234.1,99.6,234.3"></path> <path class="st4" d="M99.6,246.4c0,0.2-2.6,0.3-5.7,0.3c-3.2,0-5.7-0.1-5.7-0.3c0-0.2,2.6-0.3,5.7-0.3 C97.1,246.1,99.6,246.2,99.6,246.4"></path> <path class="st4" d="M99.6,258.5c0,0.2-2.6,0.3-5.7,0.3c-3.2,0-5.7-0.1-5.7-0.3c0-0.2,2.6-0.3,5.7-0.3 C97.1,258.2,99.6,258.3,99.6,258.5"></path> <path class="st4" d="M99.6,270.6c0,0.2-2.6,0.3-5.7,0.3c-3.2,0-5.7-0.1-5.7-0.3c0-0.2,2.6-0.3,5.7-0.3 C97.1,270.3,99.6,270.4,99.6,270.6"></path> <path class="st4" d="M99.6,282.7c0,0.2-2.6,0.3-5.7,0.3c-3.2,0-5.7-0.1-5.7-0.3c0-0.2,2.6-0.3,5.7-0.3 C97.1,282.4,99.6,282.5,99.6,282.7"></path> <path class="st4" d="M93.9,283.3c-5.9,0-5.9-0.3-5.9-0.5s0-0.5,5.9-0.5s5.9,0.3,5.9,0.5S99.8,283.3,93.9,283.3 M89.4,282.7 c0.9,0.1,2.4,0.1,4.5,0.1s3.5-0.1,4.5-0.1c-0.9-0.1-2.4-0.1-4.5-0.1S90.4,282.7,89.4,282.7"></path> <path class="st4" d="M99.6,294.8c0,0.2-2.6,0.3-5.7,0.3c-3.2,0-5.7-0.1-5.7-0.3c0-0.2,2.6-0.3,5.7-0.3 C97.1,294.5,99.6,294.6,99.6,294.8"></path> <path class="st5" d="M145.4,124.7c0,0.2-6.6,0.3-14.8,0.3c-8.2,0-14.8-0.1-14.8-0.3c0-0.2,6.6-0.3,14.8-0.3 C138.8,124.4,145.4,124.5,145.4,124.7"></path> <path class="st6" d="M130.6,125.3c-4,0-7.7,0-10.5-0.1c-4.5-0.1-4.5-0.2-4.5-0.4c0-0.3,0-0.3,4.5-0.4c2.8-0.1,6.5-0.1,10.5-0.1 c4,0,7.7,0,10.5,0.1c4.5,0.1,4.5,0.2,4.5,0.4c0,0.3,0,0.3-4.5,0.4C138.3,125.2,134.5,125.3,130.6,125.3 M119,124.7 c2.6,0.1,6.6,0.1,11.6,0.1s9-0.1,11.6-0.1c-2.6-0.1-6.6-0.1-11.6-0.1C125.6,124.6,121.6,124.6,119,124.7"></path> <path class="st5" d="M145.4,294.8c0,0.2-6.6,0.3-14.8,0.3c-8.2,0-14.8-0.1-14.8-0.3c0-0.2,6.6-0.3,14.8-0.3 C138.8,294.5,145.4,294.6,145.4,294.8"></path> <path class="st6" d="M130.6,295.4c-4,0-7.7,0-10.5-0.1c-4.5-0.1-4.5-0.2-4.5-0.4c0-0.3,0-0.3,4.5-0.4c2.8-0.1,6.5-0.1,10.5-0.1 c4,0,7.7,0,10.5,0.1c4.5,0.1,4.5,0.2,4.5,0.4c0,0.3,0,0.3-4.5,0.4C138.3,295.3,134.5,295.4,130.6,295.4 M119,294.8 c2.6,0.1,6.6,0.1,11.6,0.1s9-0.1,11.6-0.1c-2.6-0.1-6.6-0.1-11.6-0.1S121.6,294.8,119,294.8"></path> <path class="st5" d="M186.7,149.6c0,0.2-12.4,0.3-27.7,0.3c-15.3,0-27.7-0.1-27.7-0.3c0-0.2,12.4-0.3,27.7-0.3 C174.3,149.3,186.7,149.5,186.7,149.6"></path> <path class="st6" d="M159,150.2c-7.4,0-14.4,0-19.6-0.1c-8.3-0.1-8.3-0.2-8.3-0.4c0-0.3,0-0.3,8.3-0.4c5.2-0.1,12.2-0.1,19.6-0.1 c7.4,0,14.4,0,19.6,0.1c8.3,0.1,8.3,0.2,8.3,0.4c0,0.3,0,0.3-8.3,0.4C173.3,150.1,166.4,150.2,159,150.2 M137.3,149.6 c4.8,0.1,12.3,0.1,21.6,0.1c9.3,0,16.8-0.1,21.6-0.1c-4.8-0.1-12.3-0.1-21.6-0.1C149.7,149.5,142.2,149.6,137.3,149.6"></path> <path class="st4" d="M250.9,149.6c0,0.2-12.4,0.3-27.7,0.3c-15.3,0-27.7-0.1-27.7-0.3c0-0.2,12.4-0.3,27.7-0.3 C238.4,149.3,250.9,149.5,250.9,149.6"></path> <path class="st4" d="M223.1,150.2c-7.4,0-14.4,0-19.6-0.1c-8.3-0.1-8.3-0.2-8.3-0.4c0-0.3,0-0.3,8.3-0.4c5.2-0.1,12.2-0.1,19.6-0.1 c7.4,0,14.4,0,19.6,0.1c8.3,0.1,8.3,0.2,8.3,0.4c0,0.3,0,0.3-8.3,0.4C237.5,150.1,230.5,150.2,223.1,150.2 M201.5,149.6 c4.8,0.1,12.3,0.1,21.6,0.1c9.3,0,16.8-0.1,21.6-0.1c-4.8-0.1-12.3-0.1-21.6-0.1S206.3,149.6,201.5,149.6"></path> <path class="st4" d="M226.3,161.7c0,0.2-18.3,0.3-40.9,0.3c-22.6,0-40.9-0.1-40.9-0.3c0-0.2,18.3-0.3,40.9-0.3 C208,161.4,226.3,161.6,226.3,161.7"></path> <path class="st4" d="M226.3,173.8c0,0.2-18.3,0.3-40.9,0.3c-22.6,0-40.9-0.1-40.9-0.3c0-0.2,18.3-0.3,40.9-0.3 C208,173.5,226.3,173.7,226.3,173.8"></path> <path class="st4" d="M282.6,210.1c0,0.2-18.3,0.3-40.9,0.3c-22.6,0-40.9-0.1-40.9-0.3c0-0.2,18.3-0.3,40.9-0.3 C264.3,209.8,282.6,209.9,282.6,210.1"></path> <path class="st4" d="M241.7,210.7c-10.9,0-21.2,0-28.9-0.1c-12.2-0.1-12.2-0.1-12.2-0.4c0-0.3,0-0.3,12.2-0.4 c7.7-0.1,18-0.1,28.9-0.1c10.9,0,21.2,0,28.9,0.1c12.2,0.1,12.2,0.1,12.2,0.4c0,0.3,0,0.3-12.2,0.4 C262.9,210.6,252.7,210.7,241.7,210.7 M209.9,210.1c7.1,0.1,18.1,0.1,31.8,0.1c13.7,0,24.7-0.1,31.8-0.1 c-7.1-0.1-18.1-0.1-31.8-0.1C228,210,217,210.1,209.9,210.1"></path> <path class="st4" d="M258.3,185.9c0,0.2-18.3,0.3-40.9,0.3c-22.6,0-40.9-0.1-40.9-0.3c0-0.2,18.3-0.3,40.9-0.3 C240,185.6,258.3,185.8,258.3,185.9"></path> <path class="st4" d="M217.5,186.5c-10.9,0-21.2,0-28.9-0.1c-12.2-0.1-12.2-0.1-12.2-0.4c0-0.3,0-0.3,12.2-0.4 c7.7-0.1,18-0.1,28.9-0.1c10.9,0,21.2,0,28.9,0.1c12.2,0.1,12.2,0.1,12.2,0.4c0,0.3,0,0.3-12.2,0.4 C238.6,186.4,228.4,186.5,217.5,186.5 M185.6,185.9c7.1,0.1,18.1,0.1,31.8,0.1c13.7,0,24.7-0.1,31.8-0.1 c-7.1-0.1-18.1-0.1-31.8-0.1C203.7,185.8,192.7,185.9,185.6,185.9"></path> <path class="st4" d="M358.3,185.9c0,0.2-18.3,0.3-40.9,0.3c-22.6,0-40.9-0.1-40.9-0.3c0-0.2,18.3-0.3,40.9-0.3 C340,185.6,358.3,185.8,358.3,185.9"></path> <path class="st4" d="M317.4,186.5c-10.9,0-21.2,0-28.9-0.1c-12.2-0.1-12.2-0.1-12.2-0.4c0-0.3,0-0.3,12.2-0.4 c7.7-0.1,18-0.1,28.9-0.1c10.9,0,21.2,0,28.9,0.1c12.2,0.1,12.2,0.1,12.2,0.4c0,0.3,0,0.3-12.2,0.4 C338.6,186.4,328.3,186.5,317.4,186.5 M285.5,185.9c7.1,0.1,18.1,0.1,31.8,0.1c13.7,0,24.7-0.1,31.8-0.1 c-7.1-0.1-18.1-0.1-31.8-0.1C303.6,185.8,292.6,185.9,285.5,185.9"></path> <path class="st4" d="M323.5,161.7c0,0.2-18.3,0.3-40.9,0.3c-22.6,0-40.9-0.1-40.9-0.3c0-0.2,18.3-0.3,40.9-0.3 C305.2,161.4,323.5,161.6,323.5,161.7"></path> <path class="st4" d="M282.6,162.3c-10.9,0-21.2,0-28.9-0.1c-12.2-0.1-12.2-0.1-12.2-0.4c0-0.3,0-0.3,12.2-0.4 c7.7-0.1,18-0.1,28.9-0.1c10.9,0,21.2,0,28.9,0.1c12.2,0.1,12.2,0.2,12.2,0.4c0,0.3,0,0.3-12.2,0.4 C303.8,162.2,293.5,162.3,282.6,162.3 M250.8,161.7c7.1,0.1,18.1,0.1,31.9,0.1c13.7,0,24.8-0.1,31.9-0.1 c-7.1-0.1-18.1-0.1-31.9-0.1C268.9,161.6,257.9,161.7,250.8,161.7"></path> <path class="st4" d="M380,210.1c0,0.2-18.3,0.3-40.9,0.3c-22.6,0-40.9-0.1-40.9-0.3c0-0.2,18.3-0.3,40.9-0.3 C361.7,209.8,380,209.9,380,210.1"></path> <path class="st4" d="M339.1,210.7c-10.9,0-21.2,0-28.9-0.1c-12.2-0.1-12.2-0.1-12.2-0.4c0-0.3,0-0.3,12.2-0.4 c7.7-0.1,18-0.1,28.9-0.1c10.9,0,21.2,0,28.9,0.1c12.2,0.1,12.2,0.1,12.2,0.4c0,0.3,0,0.3-12.2,0.4 C360.3,210.6,350,210.7,339.1,210.7 M307.3,210.1c7.1,0.1,18.1,0.1,31.8,0.1c13.7,0,24.7-0.1,31.8-0.1c-7.1-0.1-18.1-0.1-31.8-0.1 C325.4,210,314.4,210.1,307.3,210.1"></path> <path class="st4" d="M368.7,173.8c0,0.2-28.4,0.3-63.5,0.3c-35.1,0-63.5-0.1-63.5-0.3c0-0.2,28.4-0.3,63.5-0.3 C340.3,173.5,368.7,173.7,368.7,173.8"></path> <path class="st4" d="M305.2,174.4c-17,0-32.9,0-44.9-0.1c-13.9-0.1-17.5-0.1-18.5-0.3c0,0,0,0-0.1,0l0,0c-0.3,0-0.3-0.1-0.3-0.2 c0-0.1,0-0.1,0.3-0.2l0,0c0,0,0,0,0.1,0c0.9-0.1,4.6-0.2,18.5-0.3c12-0.1,27.9-0.1,44.9-0.1c17,0,32.9,0,44.9,0.1 c13.9,0.1,17.5,0.1,18.5,0.3c0,0,0,0,0.1,0l0,0c0.3,0,0.3,0.1,0.3,0.2c0,0.1,0,0.1-0.3,0.2l0,0c0,0,0,0-0.1,0 c-0.9,0.1-4.6,0.2-18.5,0.3C338.1,174.3,322.2,174.4,305.2,174.4 M255.7,173.8c11.7,0.1,29.6,0.1,49.5,0.1c19.9,0,37.8,0,49.5-0.1 c-11.7-0.1-29.6-0.1-49.5-0.1C285.3,173.7,267.4,173.8,255.7,173.8"></path> <path class="st4" d="M145.4,137.5c0,0.2-6.6,0.3-14.8,0.3c-8.2,0-14.8-0.1-14.8-0.3c0-0.2,6.6-0.3,14.8-0.3 C138.8,137.2,145.4,137.4,145.4,137.5"></path> <path class="st4" d="M145.4,282.7c0,0.2-6.6,0.3-14.8,0.3c-8.2,0-14.8-0.1-14.8-0.3c0-0.2,6.6-0.3,14.8-0.3 C138.8,282.4,145.4,282.5,145.4,282.7"></path> <path class="st4" d="M160.1,185.9c0,0.2-6.6,0.3-14.8,0.3c-8.2,0-14.8-0.1-14.8-0.3c0-0.2,6.6-0.3,14.8-0.3 C153.5,185.6,160.1,185.8,160.1,185.9"></path> <path class="st6" d="M145.3,186.5c-4,0-7.7,0-10.5-0.1c-4.5-0.1-4.5-0.2-4.5-0.4c0-0.3,0-0.3,4.5-0.4c2.8-0.1,6.5-0.1,10.5-0.1 s7.7,0,10.5,0.1c4.5,0.1,4.5,0.2,4.5,0.4c0,0.3,0,0.3-4.5,0.4C153,186.4,149.2,186.5,145.3,186.5 M133.7,185.9 c2.6,0.1,6.6,0.1,11.6,0.1c5,0,9-0.1,11.6-0.1c-2.6-0.1-6.6-0.1-11.6-0.1C140.3,185.8,136.3,185.9,133.7,185.9"></path> <path class="st4" d="M397.8,185.9c0,0.2-6.6,0.3-14.8,0.3c-8.2,0-14.8-0.1-14.8-0.3c0-0.2,6.6-0.3,14.8-0.3 C391.1,185.6,397.8,185.8,397.8,185.9"></path> <path class="st4" d="M382.9,186.5c-4,0-7.7,0-10.5-0.1c-4.5-0.1-4.5-0.2-4.5-0.4c0-0.3,0-0.3,4.5-0.4c2.8-0.1,6.5-0.1,10.5-0.1 c4,0,7.7,0,10.5,0.1c4.5,0.1,4.5,0.2,4.5,0.4c0,0.3,0,0.3-4.5,0.4C390.6,186.4,386.9,186.5,382.9,186.5 M371.4,185.9 c2.6,0.1,6.6,0.1,11.6,0.1s9-0.1,11.6-0.1c-2.6-0.1-6.6-0.1-11.6-0.1S374,185.9,371.4,185.9"></path> <path class="st5" d="M186.7,234.3c0,0.2-12.4,0.3-27.7,0.3c-15.3,0-27.7-0.1-27.7-0.3c0-0.2,12.4-0.3,27.7-0.3 C174.3,233.9,186.7,234.1,186.7,234.3"></path> <path class="st6" d="M159,234.8c-7.4,0-14.4,0-19.6-0.1c-8.3-0.1-8.3-0.2-8.3-0.4c0-0.3,0-0.3,8.3-0.4c5.2-0.1,12.2-0.1,19.6-0.1 c7.4,0,14.4,0,19.6,0.1c8.3,0.1,8.3,0.2,8.3,0.4c0,0.3,0,0.3-8.3,0.4C173.3,234.8,166.4,234.8,159,234.8 M137.3,234.3 c4.8,0.1,12.3,0.1,21.6,0.1c9.3,0,16.8-0.1,21.6-0.1c-4.8-0.1-12.3-0.1-21.6-0.1C149.6,234.1,142.2,234.2,137.3,234.3"></path> <path class="st4" d="M250.9,234.3c0,0.2-12.4,0.3-27.7,0.3c-15.3,0-27.7-0.1-27.7-0.3c0-0.2,12.4-0.3,27.7-0.3 C238.4,233.9,250.9,234.1,250.9,234.3"></path> <path class="st4" d="M226.3,246.4c0,0.2-18.3,0.3-40.9,0.3c-22.6,0-40.9-0.1-40.9-0.3c0-0.2,18.3-0.3,40.9-0.3 C208,246,226.3,246.2,226.3,246.4"></path> <path class="st4" d="M226.3,258.5c0,0.2-18.3,0.3-40.9,0.3c-22.6,0-40.9-0.1-40.9-0.3c0-0.2,18.3-0.3,40.9-0.3 C208,258.1,226.3,258.3,226.3,258.5"></path> <path class="st4" d="M258.3,270.6c0,0.2-18.3,0.3-40.9,0.3c-22.6,0-40.9-0.1-40.9-0.3c0-0.2,18.3-0.3,40.9-0.3 C240,270.2,258.3,270.4,258.3,270.6"></path> <path class="st4" d="M358.3,270.6c0,0.2-18.3,0.3-40.9,0.3c-22.6,0-40.9-0.1-40.9-0.3c0-0.2,18.3-0.3,40.9-0.3 C340,270.2,358.3,270.4,358.3,270.6"></path> <path class="st4" d="M323.5,246.4c0,0.2-18.3,0.3-40.9,0.3c-22.6,0-40.9-0.1-40.9-0.3c0-0.2,18.3-0.3,40.9-0.3 C305.2,246,323.5,246.2,323.5,246.4"></path> <path class="st4" d="M368.7,258.5c0,0.2-28.4,0.3-63.5,0.3c-35.1,0-63.5-0.1-63.5-0.3c0-0.2,28.4-0.3,63.5-0.3 C340.3,258.1,368.7,258.3,368.7,258.5"></path> <path class="st4" d="M160.1,270.6c0,0.2-6.6,0.3-14.8,0.3c-8.2,0-14.8-0.1-14.8-0.3c0-0.2,6.6-0.3,14.8-0.3 C153.5,270.2,160.1,270.4,160.1,270.6"></path> <path class="st4" d="M397.8,270.6c0,0.2-6.6,0.3-14.8,0.3c-8.2,0-14.8-0.1-14.8-0.3c0-0.2,6.6-0.3,14.8-0.3 C391.1,270.2,397.8,270.4,397.8,270.6"></path> <path class="st7" d="M106.7,301.5c-0.1,0-0.1,0-0.2-0.3l0,0c0,0,0,0,0,0c-0.1-0.6-0.1-2.2-0.1-7.1c0-4.6-0.1-11.2-0.1-19.7 c-0.1-17.3-0.1-40.4-0.1-64.9c0-24.5,0-47.6,0.1-64.9c0-8.4,0.1-15.1,0.1-19.7c0-4.9,0.1-6.6,0.1-7.1c0,0,0,0,0,0l0,0 c0-0.3,0.1-0.3,0.2-0.3c0.1,0,0.1,0,0.2,0.3l0,0c0,0,0,0,0,0c0.1,0.6,0.1,2.2,0.1,7.1c0,4.6,0.1,11.2,0.1,19.7 c0.1,17.3,0.1,40.4,0.1,64.9c0,24.5,0,47.6-0.1,64.9c0,8.4-0.1,15.1-0.1,19.7c0,4.9-0.1,6.6-0.1,7.1c0,0,0,0,0,0l0,0 C106.9,301.5,106.8,301.5,106.7,301.5 M106.7,137.9c-0.1,16.9-0.1,42.8-0.1,71.6c0,28.8,0,54.7,0.1,71.6 c0.1-16.9,0.1-42.8,0.1-71.6C106.8,180.7,106.8,154.8,106.7,137.9"></path> <path class="st7" d="M93.9,126c-5.9,0-5.9-0.4-5.9-0.5c0-0.2,0-0.5,5.9-0.5s5.9,0.4,5.9,0.5C99.8,125.6,99.8,126,93.9,126 M89.4,125.4c0.9,0.1,2.4,0.1,4.5,0.1s3.5-0.1,4.5-0.1c-0.9-0.1-2.4-0.1-4.5-0.1S90.4,125.4,89.4,125.4"></path> <path class="st7" d="M93.9,138.1c-5.9,0-5.9-0.4-5.9-0.5c0-0.2,0-0.5,5.9-0.5s5.9,0.4,5.9,0.5C99.8,137.7,99.8,138.1,93.9,138.1 M89.4,137.5c0.9,0.1,2.4,0.1,4.5,0.1s3.5-0.1,4.5-0.1c-0.9-0.1-2.4-0.1-4.5-0.1S90.4,137.5,89.4,137.5"></path> <path class="st7" d="M93.9,150.2c-5.9,0-5.9-0.4-5.9-0.5c0-0.2,0-0.5,5.9-0.5s5.9,0.4,5.9,0.5C99.8,149.8,99.8,150.2,93.9,150.2 M89.4,149.6c0.9,0.1,2.4,0.1,4.5,0.1s3.5-0.1,4.5-0.1c-0.9-0.1-2.4-0.1-4.5-0.1S90.4,149.6,89.4,149.6"></path> <path class="st7" d="M93.9,162.3c-5.9,0-5.9-0.4-5.9-0.5c0-0.2,0-0.5,5.9-0.5c5.9,0,5.9,0.4,5.9,0.5 C99.8,161.9,99.8,162.3,93.9,162.3 M89.5,161.7c0.9,0.1,2.4,0.1,4.4,0.1c2,0,3.5-0.1,4.4-0.1c-1-0.1-2.5-0.1-4.4-0.1 C91.9,161.6,90.4,161.7,89.5,161.7"></path> <path class="st7" d="M93.9,174.4c-5.9,0-5.9-0.3-5.9-0.5c0-0.2,0-0.5,5.9-0.5s5.9,0.4,5.9,0.5C99.8,174,99.8,174.4,93.9,174.4 M89.4,173.8c0.9,0.1,2.4,0.1,4.5,0.1s3.5-0.1,4.5-0.1c-0.9-0.1-2.4-0.1-4.5-0.1S90.4,173.8,89.4,173.8"></path> <path class="st7" d="M93.9,186.5c-5.9,0-5.9-0.4-5.9-0.5c0-0.2,0-0.5,5.9-0.5s5.9,0.3,5.9,0.5C99.8,186.1,99.8,186.5,93.9,186.5 M89.4,185.9c0.9,0.1,2.4,0.1,4.5,0.1s3.5-0.1,4.5-0.1c-0.9-0.1-2.4-0.1-4.5-0.1S90.4,185.9,89.4,185.9"></path> <path class="st7" d="M93.9,198.6c-5.9,0-5.9-0.4-5.9-0.5c0-0.2,0-0.5,5.9-0.5s5.9,0.4,5.9,0.5C99.8,198.2,99.8,198.6,93.9,198.6 M89.4,198c0.9,0.1,2.4,0.1,4.5,0.1s3.5-0.1,4.5-0.1c-0.9-0.1-2.4-0.1-4.5-0.1S90.4,198,89.4,198"></path> <path class="st7" d="M93.9,210.7c-5.9,0-5.9-0.3-5.9-0.5c0-0.2,0-0.5,5.9-0.5s5.9,0.3,5.9,0.5C99.8,210.3,99.8,210.7,93.9,210.7 M89.4,210.1c0.9,0.1,2.4,0.1,4.5,0.1s3.5-0.1,4.5-0.1c-0.9-0.1-2.4-0.1-4.5-0.1S90.4,210.1,89.4,210.1"></path> <path class="st7" d="M93.9,222.8c-5.9,0-5.9-0.3-5.9-0.5c0-0.2,0-0.5,5.9-0.5c5.9,0,5.9,0.4,5.9,0.5 C99.8,222.4,99.8,222.8,93.9,222.8 M89.5,222.2c0.9,0.1,2.4,0.1,4.4,0.1c2,0,3.5-0.1,4.4-0.1c-1-0.1-2.5-0.1-4.4-0.1 C91.9,222.1,90.4,222.2,89.5,222.2"></path> <path class="st7" d="M93.9,234.9c-5.9,0-5.9-0.4-5.9-0.5c0-0.2,0-0.5,5.9-0.5c5.9,0,5.9,0.3,5.9,0.5 C99.8,234.5,99.8,234.9,93.9,234.9 M89.5,234.3c1,0.1,2.5,0.1,4.4,0.1c2,0,3.5-0.1,4.4-0.1c-0.9-0.1-2.4-0.1-4.4-0.1 C91.9,234.2,90.4,234.3,89.5,234.3"></path> <path class="st7" d="M93.9,247c-5.9,0-5.9-0.4-5.9-0.5c0-0.2,0-0.5,5.9-0.5s5.9,0.3,5.9,0.5C99.8,246.6,99.8,247,93.9,247 M89.4,246.4c0.9,0.1,2.4,0.1,4.5,0.1s3.5-0.1,4.5-0.1c-0.9-0.1-2.4-0.1-4.5-0.1S90.4,246.4,89.4,246.4"></path> <path class="st7" d="M93.9,259.1c-5.9,0-5.9-0.4-5.9-0.5c0-0.2,0-0.5,5.9-0.5c5.9,0,5.9,0.3,5.9,0.5 C99.8,258.7,99.8,259.1,93.9,259.1 M89.5,258.5c0.9,0.1,2.4,0.1,4.4,0.1c2,0,3.5-0.1,4.4-0.1c-1-0.1-2.5-0.1-4.4-0.1 C91.9,258.4,90.4,258.5,89.5,258.5"></path> <path class="st7" d="M93.9,271.2c-5.9,0-5.9-0.4-5.9-0.5c0-0.2,0-0.5,5.9-0.5s5.9,0.4,5.9,0.5C99.8,270.8,99.8,271.2,93.9,271.2 M89.4,270.6c0.9,0.1,2.4,0.1,4.5,0.1c2,0,3.5-0.1,4.5-0.1c-0.9-0.1-2.4-0.1-4.5-0.1C91.9,270.5,90.4,270.6,89.4,270.6"></path> <path class="st7" d="M93.9,295.4c-5.9,0-5.9-0.4-5.9-0.5s0-0.5,5.9-0.5s5.9,0.3,5.9,0.5S99.8,295.4,93.9,295.4 M89.4,294.8 c0.9,0.1,2.4,0.1,4.5,0.1s3.5-0.1,4.5-0.1c-0.9-0.1-2.4-0.1-4.5-0.1S90.4,294.8,89.4,294.8"></path> <path class="st7" d="M185.5,162.3c-10.9,0-21.2,0-28.9-0.1c-12.2-0.1-12.2-0.1-12.2-0.4c0-0.3,0-0.3,12.2-0.4 c7.7-0.1,18-0.1,28.9-0.1c10.9,0,21.2,0,28.9,0.1c12.2,0.1,12.2,0.2,12.2,0.4c0,0.3,0,0.3-12.2,0.4 C206.6,162.2,196.4,162.3,185.5,162.3 M153.6,161.7c7.1,0.1,18.1,0.1,31.9,0.1c13.7,0,24.8-0.1,31.9-0.1 c-7.1-0.1-18.1-0.1-31.9-0.1C171.7,161.6,160.7,161.7,153.6,161.7"></path> <path class="st7" d="M185.5,174.4c-10.9,0-21.2,0-28.9-0.1c-12.2-0.1-12.2-0.1-12.2-0.4c0-0.3,0-0.3,12.2-0.4 c7.7-0.1,18-0.1,28.9-0.1c10.9,0,21.2,0,28.9,0.1c12.2,0.1,12.2,0.1,12.2,0.4c0,0.3,0,0.3-12.2,0.4 C206.6,174.3,196.4,174.4,185.5,174.4 M153.6,173.8c7.1,0.1,18.1,0.1,31.8,0.1c13.7,0,24.7-0.1,31.8-0.1 c-7.1-0.1-18.1-0.1-31.8-0.1C171.7,173.7,160.7,173.8,153.6,173.8"></path> <path class="st7" d="M130.6,138.1c-4,0-7.7,0-10.5-0.1c-4.5-0.1-4.5-0.2-4.5-0.4c0-0.3,0-0.3,4.5-0.4c2.8-0.1,6.5-0.1,10.5-0.1 c4,0,7.7,0,10.5,0.1c4.5,0.1,4.5,0.2,4.5,0.4c0,0.3,0,0.3-4.5,0.4C138.3,138,134.5,138.1,130.6,138.1 M119,137.5 c2.6,0.1,6.6,0.1,11.6,0.1s9-0.1,11.6-0.1c-2.6-0.1-6.6-0.1-11.6-0.1S121.6,137.5,119,137.5"></path> <path class="st7" d="M130.6,283.3c-4,0-7.7,0-10.5-0.1c-4.5-0.1-4.5-0.2-4.5-0.4c0-0.3,0-0.3,4.5-0.4c2.8-0.1,6.5-0.1,10.5-0.1 s7.7,0,10.5,0.1c4.5,0.1,4.5,0.2,4.5,0.4c0,0.3,0,0.3-4.5,0.4C138.3,283.2,134.5,283.3,130.6,283.3 M119,282.7 c2.6,0.1,6.6,0.1,11.6,0.1c5,0,9-0.1,11.6-0.1c-2.6-0.1-6.6-0.1-11.6-0.1C125.6,282.6,121.6,282.7,119,282.7"></path> <path class="st7" d="M223.1,234.8c-7.4,0-14.4,0-19.6-0.1c-8.3-0.1-8.3-0.2-8.3-0.4c0-0.3,0-0.3,8.3-0.4c5.2-0.1,12.2-0.1,19.6-0.1 c7.4,0,14.4,0,19.6,0.1c8.3,0.1,8.3,0.2,8.3,0.4c0,0.3,0,0.3-8.3,0.4C237.5,234.8,230.5,234.8,223.1,234.8 M201.5,234.3 c4.8,0.1,12.3,0.1,21.6,0.1c9.3,0,16.8-0.1,21.6-0.1c-4.8-0.1-12.3-0.1-21.6-0.1C213.8,234.1,206.3,234.2,201.5,234.3"></path> <path class="st7" d="M185.5,246.9c-10.9,0-21.2,0-28.9-0.1c-12.2-0.1-12.2-0.1-12.2-0.4c0-0.3,0-0.3,12.2-0.4 c7.7-0.1,18-0.1,28.9-0.1c10.9,0,21.2,0,28.9,0.1c12.2,0.1,12.2,0.1,12.2,0.4c0,0.3,0,0.3-12.2,0.4 C206.6,246.9,196.4,246.9,185.5,246.9 M153.6,246.4c7.1,0.1,18.1,0.1,31.8,0.1c13.7,0,24.7-0.1,31.8-0.1 c-7.1-0.1-18.1-0.1-31.8-0.1C171.7,246.2,160.7,246.3,153.6,246.4"></path> <path class="st7" d="M185.5,259c-10.9,0-21.2,0-28.9-0.1c-12.2-0.1-12.2-0.1-12.2-0.4c0-0.3,0-0.3,12.2-0.4 c7.7-0.1,18-0.1,28.9-0.1c10.9,0,21.2,0,28.9,0.1c12.2,0.1,12.2,0.2,12.2,0.4c0,0.3,0,0.3-12.2,0.4C206.6,259,196.4,259,185.5,259 M153.6,258.5c7.1,0.1,18.1,0.1,31.9,0.1c13.7,0,24.8-0.1,31.9-0.1c-7.1-0.1-18.1-0.1-31.9-0.1 C171.7,258.3,160.7,258.4,153.6,258.5"></path> <path class="st7" d="M217.5,271.1c-10.9,0-21.2,0-28.9-0.1c-12.2-0.1-12.2-0.2-12.2-0.4c0-0.3,0-0.3,12.2-0.4 c7.7-0.1,18-0.1,28.9-0.1c10.9,0,21.2,0,28.9,0.1c12.2,0.1,12.2,0.2,12.2,0.4c0,0.3,0,0.3-12.2,0.4 C238.6,271.1,228.4,271.1,217.5,271.1 M185.6,270.6c7.1,0.1,18.1,0.1,31.9,0.1c13.7,0,24.8-0.1,31.9-0.1 c-7.1-0.1-18.1-0.1-31.9-0.1C203.7,270.4,192.7,270.5,185.6,270.6"></path> <path class="st7" d="M317.4,271.1c-10.9,0-21.2,0-28.9-0.1c-12.2-0.1-12.2-0.2-12.2-0.4c0-0.3,0-0.3,12.2-0.4 c7.7-0.1,18-0.1,28.9-0.1c10.9,0,21.2,0,28.9,0.1c12.2,0.1,12.2,0.2,12.2,0.4c0,0.3,0,0.3-12.2,0.4 C338.6,271.1,328.3,271.1,317.4,271.1 M285.5,270.6c7.1,0.1,18.1,0.1,31.9,0.1c13.7,0,24.8-0.1,31.9-0.1 c-7.1-0.1-18.1-0.1-31.9-0.1C303.6,270.4,292.6,270.5,285.5,270.6"></path> <path class="st7" d="M282.6,246.9c-10.9,0-21.2,0-28.9-0.1c-12.2-0.1-12.2-0.1-12.2-0.4c0-0.3,0-0.3,12.2-0.4 c7.7-0.1,18-0.1,28.9-0.1c10.9,0,21.2,0,28.9,0.1c12.2,0.1,12.2,0.1,12.2,0.4c0,0.3,0,0.3-12.2,0.4 C303.8,246.9,293.5,246.9,282.6,246.9 M250.8,246.4c7.1,0.1,18.1,0.1,31.8,0.1c13.7,0,24.7-0.1,31.8-0.1 c-7.1-0.1-18.1-0.1-31.8-0.1C268.9,246.2,257.9,246.3,250.8,246.4"></path> <path class="st7" d="M305.2,259c-17,0-32.9,0-44.9-0.1c-13.9-0.1-17.5-0.1-18.5-0.3c0,0,0,0-0.1,0l0,0c-0.3,0-0.3-0.1-0.3-0.2 c0-0.1,0-0.1,0.3-0.2l0,0c0,0,0,0,0.1,0c0.9-0.1,4.6-0.2,18.5-0.3c12-0.1,28-0.1,44.9-0.1c16.9,0,32.9,0,44.9,0.1 c13.9,0.1,17.5,0.1,18.5,0.3c0,0,0,0,0.1,0l0,0c0.3,0,0.3,0.1,0.3,0.2c0,0.1,0,0.1-0.3,0.2l0,0c0,0,0,0-0.1,0 c-0.9,0.1-4.6,0.2-18.5,0.3C338.1,259,322.2,259,305.2,259 M255.7,258.5c11.7,0.1,29.7,0.1,49.6,0.1c19.9,0,37.9,0,49.6-0.1 c-11.7-0.1-29.7-0.1-49.6-0.1C285.3,258.3,267.4,258.4,255.7,258.5"></path> <path class="st7" d="M145.3,271.1c-4,0-7.7,0-10.5-0.1c-4.5-0.1-4.5-0.2-4.5-0.4c0-0.3,0-0.3,4.5-0.4c2.8-0.1,6.5-0.1,10.5-0.1 s7.7,0,10.5,0.1c4.5,0.1,4.5,0.2,4.5,0.4c0,0.3,0,0.3-4.5,0.4C153,271.1,149.2,271.1,145.3,271.1 M133.7,270.6 c2.6,0.1,6.6,0.1,11.6,0.1s9-0.1,11.6-0.1c-2.6-0.1-6.6-0.1-11.6-0.1S136.3,270.5,133.7,270.6"></path> <path class="st7" d="M382.9,271.1c-4,0-7.7,0-10.5-0.1c-4.5-0.1-4.5-0.2-4.5-0.4c0-0.3,0-0.3,4.5-0.4c2.8-0.1,6.5-0.1,10.5-0.1 c4,0,7.7,0,10.5,0.1c4.5,0.1,4.5,0.2,4.5,0.4c0,0.3,0,0.3-4.5,0.4C390.6,271.1,386.9,271.1,382.9,271.1 M371.4,270.6 c2.6,0.1,6.6,0.1,11.6,0.1c5,0,9-0.1,11.6-0.1c-2.6-0.1-6.6-0.1-11.6-0.1C378,270.4,373.9,270.5,371.4,270.6"></path> <rect x="150.9" y="45.5" class="st3" width="332.6" height="187.7"></rect> <path class="st8" d="M483.5,233.2c0-1.4-0.1-72.4-0.2-187.7l0.2,0.2c-88.9,0-205.4,0-332.6,0.1h0l0.2-0.2c0,66.4,0,129.9,0,187.7 l-0.2-0.2C345.8,233.1,481.6,233.2,483.5,233.2c-2,0-137.8,0.1-332.6,0.2h-0.2v-0.2c0-57.8,0-121.3,0-187.7v-0.2h0.2h0 c127.2,0,243.8,0,332.6,0.1h0.2v0.2C483.6,160.8,483.5,231.7,483.5,233.2"></path> <path class="st8" d="M483.5,65.4c0,0.1-74.5,0.2-166.4,0.2c-91.9,0-166.4-0.1-166.4-0.2c0-0.1,74.5-0.2,166.4-0.2 C409,65.2,483.5,65.3,483.5,65.4"></path> <path class="st8" d="M166.5,56c0,1.5-1.2,2.7-2.7,2.7c-1.5,0-2.7-1.2-2.7-2.7c0-1.5,1.2-2.7,2.7-2.7 C165.3,53.3,166.5,54.5,166.5,56"></path> <path class="st8" d="M176.6,56c0,1.5-1.2,2.7-2.7,2.7c-1.5,0-2.7-1.2-2.7-2.7c0-1.5,1.2-2.7,2.7-2.7 C175.4,53.3,176.6,54.5,176.6,56"></path> <path class="st8" d="M186.7,56c0,1.5-1.2,2.7-2.7,2.7c-1.5,0-2.7-1.2-2.7-2.7c0-1.5,1.2-2.7,2.7-2.7 C185.5,53.3,186.7,54.5,186.7,56"></path> <path class="st6" d="M424.5,95.4c0,0.1-19.8,0.2-44.1,0.2c-24.4,0-44.1-0.1-44.1-0.2c0-0.1,19.8-0.2,44.1-0.2 C404.8,95.2,424.5,95.3,424.5,95.4"></path> <path class="st8" d="M457.3,117.2c0,0.1-27.5,0.2-61.4,0.2c-33.9,0-61.4-0.1-61.4-0.2c0-0.1,27.5-0.2,61.4-0.2 C429.8,117,457.3,117.1,457.3,117.2"></path> <path class="st8" d="M457.3,127.7c0,0.1-27.5,0.2-61.4,0.2c-33.9,0-61.4-0.1-61.4-0.2c0-0.1,27.5-0.2,61.4-0.2 C429.8,127.5,457.3,127.6,457.3,127.7"></path> <path class="st6" d="M378.2,163h-35c-5.3,0-9.7-4.3-9.7-9.7s4.3-9.7,9.7-9.7h35c5.3,0,9.7,4.3,9.7,9.7S383.5,163,378.2,163"></path> <rect x="171.8" y="88.1" transform="matrix(1 -3.544554e-03 3.544554e-03 1 -0.4583 0.8059)" class="st6" width="110.6" height="83.1"></rect> <polygon class="st5" points="172,171.4 210.4,119.6 234.5,151.9 250.6,134.5 282.6,171.1 "></polygon> <path class="st5" d="M244.5,113.2c0,4.8-3.9,8.7-8.7,8.7c-4.8,0-8.7-3.9-8.7-8.7c0-4.8,3.9-8.7,8.7-8.7 C240.6,104.5,244.5,108.4,244.5,113.2"></path> <polygon class="st9" points="172,171.4 210.4,119.6 234.5,151.9 250.6,134.5 282.6,171.1 "></polygon> <path class="st9" d="M244.5,113.2c0,4.8-3.9,8.7-8.7,8.7c-4.8,0-8.7-3.9-8.7-8.7c0-4.8,3.9-8.7,8.7-8.7 C240.6,104.5,244.5,108.4,244.5,113.2"></path> <rect x="288.3" y="88.1" transform="matrix(1 -3.550880e-03 3.550880e-03 1 -0.3543 1.0824)" class="st6" width="32.7" height="24.6"></rect> <polygon class="st5" points="288.4,112.7 299.7,97.4 306.8,106.9 311.6,101.8 321,112.5 "></polygon> <path class="st5" d="M309.8,95.5c0,1.4-1.1,2.6-2.6,2.6c-1.4,0-2.6-1.1-2.6-2.6c0-1.4,1.1-2.6,2.6-2.6 C308.6,92.9,309.8,94,309.8,95.5"></path> <polygon class="st9" points="288.4,112.7 299.7,97.4 306.8,106.9 311.6,101.8 321,112.5 "></polygon> <path class="st9" d="M309.8,95.5c0,1.4-1.1,2.6-2.6,2.6c-1.4,0-2.6-1.1-2.6-2.6c0-1.4,1.1-2.6,2.6-2.6 C308.6,92.9,309.8,94,309.8,95.5"></path> <rect x="288.3" y="117.5" transform="matrix(1 -3.550880e-03 3.550880e-03 1 -0.4588 1.0826)" class="st6" width="32.7" height="24.6"></rect> <polygon class="st5" points="288.4,142.1 299.7,126.8 306.8,136.3 311.6,131.2 321,142 "></polygon> <path class="st5" d="M309.8,124.9c0,1.4-1.1,2.6-2.6,2.6c-1.4,0-2.6-1.1-2.6-2.6c0-1.4,1.1-2.6,2.6-2.6 C308.6,122.3,309.8,123.4,309.8,124.9"></path> <polygon class="st9" points="288.4,142.1 299.7,126.8 306.8,136.3 311.6,131.2 321,142 "></polygon> <path class="st9" d="M309.8,124.9c0,1.4-1.1,2.6-2.6,2.6c-1.4,0-2.6-1.1-2.6-2.6c0-1.4,1.1-2.6,2.6-2.6 C308.6,122.3,309.8,123.4,309.8,124.9"></path> <rect x="288.3" y="147" transform="matrix(1 -3.550880e-03 3.550880e-03 1 -0.5638 1.0828)" class="st6" width="32.7" height="24.6"></rect> <polygon class="st5" points="288.4,171.7 299.7,156.4 306.8,165.9 311.6,160.8 321,171.5 "></polygon> <path class="st5" d="M309.8,154.5c0,1.4-1.1,2.6-2.6,2.6c-1.4,0-2.6-1.1-2.6-2.6c0-1.4,1.1-2.6,2.6-2.6 C308.6,151.9,309.8,153,309.8,154.5"></path> <polygon class="st9" points="288.4,171.7 299.7,156.4 306.8,165.9 311.6,160.8 321,171.5 "></polygon> <path class="st9" d="M309.8,154.5c0,1.4-1.1,2.6-2.6,2.6c-1.4,0-2.6-1.1-2.6-2.6c0-1.4,1.1-2.6,2.6-2.6 C308.6,151.9,309.8,153,309.8,154.5"></path> <path class="st8" d="M219.4,181.5c0,1.2-1,2.2-2.2,2.2c-1.2,0-2.2-1-2.2-2.2c0-1.2,1-2.2,2.2-2.2 C218.4,179.2,219.4,180.2,219.4,181.5"></path> <path class="st0" d="M229.5,181.5c0,1.2-1,2.2-2.2,2.2c-1.2,0-2.2-1-2.2-2.2c0-1.2,1-2.2,2.2-2.2 C228.5,179.2,229.5,180.2,229.5,181.5"></path> <path class="st0" d="M239.6,181.5c0,1.2-1,2.2-2.2,2.2c-1.2,0-2.2-1-2.2-2.2c0-1.2,1-2.2,2.2-2.2 C238.6,179.2,239.6,180.2,239.6,181.5"></path> <path class="st8" d="M382.8,200.9c0,0.1-48.1,0.2-107.4,0.2c-59.3,0-107.4-0.1-107.4-0.2c0-0.1,48.1-0.2,107.4-0.2 C334.7,200.6,382.8,200.7,382.8,200.9"></path> <path class="st8" d="M382.8,212.9c0,0.1-48.1,0.2-107.4,0.2c-59.3,0-107.4-0.1-107.4-0.2c0-0.1,48.1-0.2,107.4-0.2 C334.7,212.7,382.8,212.8,382.8,212.9"></path> <path class="st10" d="M432.1,211.5c-9.7,0-19.5-2.9-28-9c-10.4-7.5-17.3-18.6-19.4-31.3c-2.1-12.7,0.9-25.4,8.4-35.8 c15.5-21.5,45.6-26.5,67.1-11c10.4,7.5,17.3,18.6,19.4,31.3c2.1,12.7-0.9,25.4-8.4,35.8C461.8,204.6,447,211.5,432.1,211.5 M432.2,118.6c-14,0-27.8,6.5-36.5,18.7c-7,9.7-9.8,21.6-7.8,33.4c1.9,11.8,8.4,22.2,18.1,29.2c9.7,7,21.6,9.8,33.4,7.8 c11.8-1.9,22.2-8.4,29.2-18.1c7-9.7,9.8-21.6,7.8-33.4c-1.9-11.8-8.4-22.2-18.1-29.2C450.4,121.3,441.2,118.6,432.2,118.6"></path> <path class="st10" d="M527.9,224.1L527.9,224.1c-1.8,2.8-5.5,3.6-8.3,1.8l-50.3-32.5c-0.5-0.3-0.6-0.9-0.3-1.4l4.3-6.6 c0.3-0.5,0.9-0.6,1.4-0.3l51.3,30.7C528.9,217.5,529.8,221.3,527.9,224.1"></path> <path class="st11" d="M432.1,208.9c-9.7,0-19.5-2.9-28-9c-10.4-7.5-17.3-18.6-19.4-31.3c-2.1-12.7,0.9-25.4,8.4-35.8 c15.5-21.5,45.6-26.5,67.1-11c10.4,7.5,17.3,18.6,19.4,31.3c2.1,12.7-0.9,25.4-8.4,35.8C461.8,201.9,447,208.9,432.1,208.9 M432.2,115.9c-14,0-27.8,6.5-36.5,18.7c-7,9.7-9.8,21.6-7.8,33.4c1.9,11.8,8.4,22.2,18.1,29.2c9.7,7,21.6,9.8,33.4,7.8 c11.8-1.9,22.2-8.4,29.2-18.1c7-9.7,9.8-21.6,7.8-33.4c-1.9-11.8-8.4-22.2-18.1-29.2C450.4,118.6,441.2,115.9,432.2,115.9"></path> <path class="st11" d="M528.7,223l-0.1,0.2c-1.4,2.2-4.4,2.9-6.7,1.4l-53.4-34.5l5.4-8.3l53.4,34.5 C529.5,217.7,530.1,220.7,528.7,223"></path> <path class="st10" d="M415.7,165.1c0,0.1-2.6,0.2-5.8,0.2h-0.1l0.1-0.1c-2.4,2-4.5,3.5-4.6,3.4c-0.1-0.1,1.8-1.8,4.3-3.7l0.1,0h0.1 h0.1C413.1,164.8,415.7,164.9,415.7,165.1"></path> <path class="st10" d="M419.4,176.7c0,0.1-0.6,0.5-1.7,1.1c-1.1,0.6-2.6,1.4-4.2,2.3c-0.3,0.2-0.7,0.4-1,0.5l0.1-0.1 c-1.4,2.9-2.6,5-2.7,5c-0.1-0.1,0.9-2.3,2.3-5.2l0-0.1l0.1,0c0.3-0.2,0.7-0.3,1-0.5c1.7-0.9,3.2-1.6,4.3-2.2 C418.6,176.9,419.3,176.6,419.4,176.7"></path> <path class="st10" d="M443.4,154.7c0-0.1,0.7-0.4,1.8-0.8c1.1-0.4,2.7-1,4.5-1.6c0.2-0.1,0.4-0.1,0.6-0.2l-0.1,0.1 c1.1-1.3,2.2-2.5,2.9-3.3c0.8-0.8,1.2-1.3,1.3-1.2c0,0-0.4,0.6-1.1,1.5c-0.7,0.9-1.7,2-2.8,3.4l0,0l-0.1,0 c-0.2,0.1-0.4,0.1-0.6,0.2c-1.8,0.6-3.4,1.2-4.5,1.5C444.2,154.5,443.4,154.7,443.4,154.7"></path> <path class="st10" d="M419,154.7c0-0.1-0.7-0.4-1.8-0.8c-1.1-0.4-2.7-1-4.5-1.6c-0.2-0.1-0.4-0.1-0.6-0.2l0.1,0.1 c-1.1-1.3-2.2-2.5-2.9-3.3s-1.2-1.3-1.3-1.2c0,0,0.4,0.6,1.1,1.5c0.7,0.9,1.7,2,2.8,3.4l0,0l0.1,0c0.2,0.1,0.4,0.1,0.6,0.2 c1.8,0.6,3.4,1.2,4.5,1.5C418.2,154.5,419,154.7,419,154.7"></path> <path class="st10" d="M447.1,165.1c0-0.1,2.6-0.2,5.8-0.2h0.1h0.1l0.1,0c2.4,2,4.3,3.6,4.3,3.7c-0.1,0.1-2.1-1.4-4.6-3.4l0.1,0.1 h-0.1C449.7,165.3,447.1,165.2,447.1,165.1"></path> <path class="st10" d="M443.4,176.7c0-0.1,0.7,0.2,1.8,0.8c1.1,0.5,2.6,1.3,4.3,2.2c0.3,0.2,0.7,0.4,1,0.5l0.1,0l0,0.1 c1.4,2.9,2.4,5.1,2.3,5.2c-0.1,0-1.3-2.1-2.7-5l0.1,0.1c-0.3-0.2-0.7-0.3-1-0.5c-1.7-0.9-3.2-1.7-4.2-2.3 C444,177.1,443.4,176.7,443.4,176.7"></path> <path class="st10" d="M442,147.3c0,5.2-4.2,9.4-9.4,9.4s-9.4-4.2-9.4-9.4c0-5.2,4.2-9.4,9.4-9.4S442,142.1,442,147.3"></path> <path class="st5" d="M449.2,165.1c0,9.5-7.7,17.2-17.2,17.2s-17.2-7.7-17.2-17.2c0-9.5,7.7-17.2,17.2-17.2S449.2,155.6,449.2,165.1 "></path> <path class="st6" d="M449.2,165.1c0,9.5-7.7,17.2-17.2,17.2s-17.2-7.7-17.2-17.2c0-9.5,7.7-17.2,17.2-17.2S449.2,155.6,449.2,165.1 "></path> <path class="st10" d="M427.1,139.8c-0.1,0.1-1-0.7-2.1-1.7c-1.1-1.1-1.8-2-1.7-2.1c0.1-0.1,1,0.7,2.1,1.7 C426.4,138.8,427.2,139.7,427.1,139.8"></path> <path class="st10" d="M438.2,140c-0.1-0.1,0.7-1,1.8-2.1c1.1-1.1,2-1.8,2.1-1.7c0.1,0.1-0.7,1-1.8,2.1 C439.2,139.3,438.3,140.1,438.2,140"></path> <path class="st10" d="M432.4,182.5c-0.1,0-0.2-7.8-0.2-17.3c0-9.6,0.1-17.3,0.2-17.3c0.1,0,0.2,7.8,0.2,17.3 C432.7,174.8,432.6,182.5,432.4,182.5"></path> <path class="st3" d="M429.6,180.3c0,0-0.3,0-0.9-0.1c-0.6-0.1-1.4-0.3-2.4-0.7c-2-0.7-4.5-2.5-6.4-5.1c-1.9-2.7-2.7-5.6-3-7.7 c-0.2-1-0.2-1.9-0.2-2.5c0-0.6,0-0.9,0.1-0.9c0.1,0,0.1,1.3,0.5,3.4c0.4,2,1.2,4.9,3,7.5c1.8,2.6,4.3,4.3,6.2,5.1 C428.3,180.1,429.6,180.2,429.6,180.3"></path> <path class="st3" d="M417.7,159c0.1,0,0,0.7-0.2,1.5c-0.2,0.8-0.3,1.5-0.4,1.4c-0.1,0-0.2-0.7,0-1.5 C417.3,159.6,417.6,158.9,417.7,159"></path> <path class="st7" d="M394.8,165.9c0,0-0.2-0.5-0.4-1.5c-0.1-0.5-0.3-1.1-0.3-1.7c-0.1-0.7-0.2-1.5-0.3-2.3c0-0.4-0.1-0.9-0.1-1.4 c0-0.5,0-1,0-1.5c0-1,0.1-2.1,0.2-3.3c0.3-2.3,0.8-4.8,1.6-7.3c0.9-2.5,2-4.8,3.2-6.8c0.6-1,1.2-1.9,1.8-2.7 c0.3-0.4,0.6-0.8,0.9-1.2c0.3-0.4,0.6-0.7,0.9-1c0.6-0.7,1.1-1.2,1.6-1.7c0.5-0.5,0.9-0.9,1.3-1.2c0.8-0.6,1.2-0.9,1.2-0.9 c0,0-0.4,0.4-1.1,1c-0.4,0.3-0.8,0.7-1.3,1.2c-0.5,0.5-1,1-1.6,1.7c-0.3,0.3-0.6,0.7-0.9,1c-0.3,0.4-0.6,0.8-0.9,1.2 c-0.6,0.8-1.2,1.7-1.8,2.7c-1.1,2-2.2,4.2-3.1,6.7c-0.8,2.5-1.3,5-1.6,7.2c-0.1,1.1-0.2,2.2-0.2,3.2c0,0.5,0,1,0,1.5 c0,0.5,0,0.9,0.1,1.4c0,0.9,0.1,1.6,0.2,2.3c0.1,0.7,0.2,1.3,0.3,1.7C394.7,165.4,394.8,165.9,394.8,165.9"></path> <path class="st12" d="M529.4,190L529.4,190c-4.3,0.3-8-3-8.2-7.3c-0.2-4.1-0.3-8.3-0.3-8.3s-6.3-0.6-6.8-6.8 c-0.5-6.2-0.3-20.6-0.3-20.6c7-3.6,15.4-3,21.9,1.3l-0.3,21.9l0,11.8C535.4,186,533.4,189.7,529.4,190"></path> <path class="st13" d="M522,163.4c0,0,0,0.1,0.1,0.3c0.1,0.1,0.3,0.3,0.7,0.3c0.7,0.1,1.6-0.7,1.6-1.7c0-0.5-0.2-1-0.5-1.3 c-0.3-0.3-0.7-0.5-1-0.6c-0.6-0.1-1,0.1-1,0.1c0,0.1,0.4,0,0.9,0.2c0.5,0.2,1.1,0.7,1.1,1.6c0,0.8-0.7,1.4-1.2,1.4 C522.2,163.7,522,163.4,522,163.4"></path> <path class="st12" d="M483.6,202.9c0,0-1.7-4.6-2.6-5.1c-1-0.5-3.1-2-3.8-3.4c-0.5-0.9-1.2-0.6-1.2-0.6c-0.3,0.6-0.2,1.3,0.2,1.9 l1.3,1.8l-7.6-4.1c0,0-0.4,1.1,0.5,2.2c0.9,1.1,0.6,1,0.6,1s-0.9,0.6-0.4,1.4c0.5,0.8,1.3,1.7,1.3,1.7s-0.8,1-0.4,2 c0,0-0.3,0.8,0,2s2.4,3.2,2.4,3.2l8.8,5l4.5-6.6L483.6,202.9z"></path> <path class="st13" d="M475,196.1c0,0.1,1,0.7,2.2,1.4c1.3,0.7,2.3,1.2,2.3,1.1c0-0.1-1-0.7-2.2-1.4 C476.1,196.6,475,196.1,475,196.1"></path> <path class="st13" d="M470.9,196.2c0,0.1,0.9,0.9,2,2c1.2,1,2.1,1.8,2.2,1.8c0-0.1-0.8-0.9-2-2 C471.9,196.9,470.9,196.1,470.9,196.2"></path> <path class="st13" d="M471.6,199.3c-0.1,0,0.4,0.6,1,1.2c0.6,0.6,1.1,1.1,1.1,1c0.1,0-0.4-0.6-1-1.2 C472.1,199.7,471.6,199.3,471.6,199.3"></path> <path class="st13" d="M471.5,201.4c-0.1,0.1,0.2,0.4,0.5,0.8c0.3,0.4,0.6,0.7,0.6,0.7c0.1,0-0.1-0.4-0.4-0.8 C471.9,201.7,471.5,201.4,471.5,201.4"></path> <polygon class="st12" points="555.8,340 557.8,376.5 544.6,379.7 541.9,344 "></polygon> <polygon class="st14" points="558.2,376.2 560.4,386.1 545.2,386.1 544.6,379.7 "></polygon> <polyline class="st15" points="560.4,386.1 545.2,386.1 545.1,384.7 560.2,384.3 560.4,385.9 "></polyline> <polygon class="st12" points="505.6,357.7 502.3,382 490.6,381.1 493.1,358.9 "></polygon> <path class="st14" d="M490.5,378.5L490.5,378.5c0,0-13.2,4.4-13.4,6.8l25.2,0.7l0.4-6.6l-1.1,0.2C497.9,380.4,494,380,490.5,378.5"></path> <path class="st3" d="M499.6,380.7c0.5,0.1,0.8,0.7,0.7,1.2c-0.1,0.5-0.7,0.8-1.2,0.7c-0.5-0.1-0.9-0.8-0.7-1.3 C498.6,380.8,499.2,380.4,499.6,380.7"></path> <path class="st15" d="M502.3,386.1l0-2l-24.1,0.1c0,0-1.1,0.5-1,1.2L502.3,386.1z"></path> <path class="st2" d="M546,235.2c0,0,6.8,11.5,7.9,25.1l3.7,112.8l-14.7,3.5l-11.2-110.5c0,0-27.1,110.8-28,110.8 c-0.9,0-14.2-2.4-14.2-2.4l20.3-138.8L546,235.2z"></path> <path class="st11" d="M540.5,264.1C540.5,264.1,540.7,264.9,540.5,264.1C540.5,264.3,540.3,263.8,540.5,264.1 c0,0.8,0.2,1.8,0.4,3.2c0.5,2.8,1.1,6.8,1.8,11.7c1.5,9.9,3.4,23.6,4.9,38.8c1.6,15.2,2.5,29,3.1,39c0.3,5,0.5,9.1,0.6,11.9 c0.1,1.4,0.1,2.5,0.2,3.2c0,0.4,0,0.6,0,0.8c0,0.2,0,0.3,0,0.3c0,0,0-0.1,0-0.3c0-0.2,0-0.5,0-0.8c0-0.8,0-1.8-0.1-3.2 c-0.1-2.8-0.2-6.9-0.5-11.9c-0.5-10-1.4-23.8-2.9-39.1c-1.6-15.2-3.5-28.9-5-38.9c-0.8-5-1.5-9-2-11.7 C540.8,265.9,540.6,264.9,540.5,264.1C540.4,263.8,540.5,264.3,540.5,264.1C540.6,264.9,540.5,264.1,540.5,264.1"></path> <path class="st11" d="M517,264.9c-0.1,0-4.6,24.8-10,55.4c-5.4,30.6-9.7,55.5-9.6,55.5c0.1,0,4.6-24.8,10-55.4 C512.8,289.8,517.1,264.9,517,264.9"></path> <path class="st11" d="M532.3,265.9c0,0,0.1-0.1,0.2-0.3c0.1-0.2,0.2-0.5,0.4-0.8c0.3-0.7,0.7-1.8,1.1-3.2c0.8-2.7,1.4-6.7,1-11 c-0.1-1.1-0.2-2.1-0.4-3.2c-0.2-1-0.4-2-0.7-2.9c-0.5-1.8-1.1-3.4-1.5-4.8c-0.5-1.3-0.9-2.4-1.1-3.2c-0.1-0.3-0.2-0.6-0.3-0.8 c-0.1-0.2-0.1-0.3-0.1-0.3c0,0,0,0.1,0.1,0.3c0.1,0.2,0.2,0.5,0.3,0.9c0.3,0.8,0.6,1.9,1,3.2c0.4,1.4,0.9,3,1.4,4.8 c0.2,0.9,0.5,1.9,0.7,2.8c0.2,1,0.3,2,0.4,3.1c0.3,4.3-0.2,8.2-0.9,10.9c-0.3,1.4-0.7,2.5-1,3.2 C532.4,265.4,532.2,265.8,532.3,265.9"></path> <path class="st11" d="M528.1,246.9c0,0,0,0.1,0,0.2c0,0.2,0,0.4,0,0.6c0,0.6-0.1,1.3-0.1,2.2c-0.1,1.9-0.2,4.6-0.3,7.9l0.1-0.1 c-1.7,0.7-3.6,1.5-5.7,2.3l0.2,0c-1.5-0.9-3-1.8-4.6-2.8c-0.1-0.1-0.2-0.1-0.3-0.2l0.1,0.1c-0.3-3.7-0.7-7.2-1-10.3l-0.2,0.2 c3.5,0,6.4-0.1,8.4-0.1c1,0,1.8,0,2.4,0c0.3,0,0.5,0,0.6,0C528,246.9,528.1,246.9,528.1,246.9c0,0-0.3,0-0.8,0c-0.6,0-1.4,0-2.4,0 c-2.1,0-5.1,0-8.6-0.1l-0.2,0l0,0.2c0.3,3,0.6,6.5,0.9,10.3l0,0.1l0.1,0c0.1,0.1,0.2,0.1,0.3,0.2c1.6,1,3.1,1.9,4.6,2.8l0.1,0 l0.1,0c2-0.8,3.9-1.6,5.6-2.3l0.1,0l0-0.1c0-3.3,0.1-6,0.1-8c0-0.9,0-1.7,0-2.2C528.1,247.1,528.1,246.9,528.1,246.9"></path> <path class="st11" d="M549.3,243.9c0,0,0,0.3,0.1,0.8c0.1,0.5,0.2,1.2,0.3,2.1c0.3,1.8,0.7,4.3,1.2,7.3l0.1-0.1 c-1.3,1-2.7,2-4.3,3.2l0.1,0c-1.6-0.5-3.4-0.9-5.2-1.4c-0.1,0-0.2,0-0.3-0.1l0.1,0.1c-1-3.4-1.9-6.6-2.7-9.3l-0.1,0.2 c3.1-0.7,5.8-1.4,7.7-1.8c0.9-0.2,1.6-0.4,2.2-0.5C549.1,244,549.3,243.9,549.3,243.9c0,0-0.3,0-0.7,0.1c-0.5,0.1-1.3,0.3-2.2,0.5 c-1.9,0.4-4.6,1-7.8,1.7l-0.2,0l0,0.2c0.8,2.7,1.7,5.9,2.7,9.3l0,0.1l0.1,0c0.1,0,0.2,0,0.3,0.1c1.8,0.5,3.6,1,5.2,1.4l0.1,0l0.1,0 c1.5-1.1,3-2.2,4.2-3.2l0.1-0.1l0-0.1c-0.6-3-1-5.5-1.3-7.3c-0.2-0.8-0.3-1.5-0.4-2C549.4,244.1,549.4,243.9,549.3,243.9"></path> <path class="st11" d="M519.7,263.7c0,0.1,2.8,0.8,6.2,1.5c3.5,0.8,6.3,1.3,6.3,1.2c0-0.1-2.8-0.8-6.2-1.5 C522.5,264.1,519.7,263.6,519.7,263.7"></path> <path class="st11" d="M537.9,264.2c0,0,0.6,0.1,1.6,0c1-0.1,2.3-0.3,3.8-0.6c1.5-0.3,2.8-0.8,3.7-1.1s1.5-0.7,1.4-0.7 c0,0-0.6,0.2-1.5,0.5c-0.9,0.3-2.2,0.7-3.7,1c-1.5,0.3-2.8,0.6-3.8,0.7C538.5,264,537.9,264.1,537.9,264.2"></path> <polyline class="st12" points="519.7,180.1 521.3,176.8 535.4,176.2 537.6,180.6 520,180.6 "></polyline> <polygon class="st16" points="485.9,203.8 480.6,211.3 496,224.5 501.2,212.2 "></polygon> <polygon class="st16" points="554.4,222.1 540.9,216.7 543.9,205.5 554.9,209.3 "></polygon> <path class="st16" d="M497,225.1c-3.4-1.7-4.2-5.7-2.6-9.1l14-30c0.3-0.7,0.8-1.4,1.4-1.9c5.5-4.8,11.6-4,11.6-4l14.6-0.4 c0,0,11.5,0,15.8,9.1c0.3,0.7,7,13.9,11.4,22.6c2,4,0.1,8.9-4.1,10.5c-3.7,1.4-7.9-0.4-9.5-4l-4.8-10.7l-3,15.3l4.3,12.6l-36.3,0.5 l2.8-16.8l0.9-12l-7.4,15.2C504.6,225.4,500.4,226.8,497,225.1"></path> <path class="st17" d="M518.3,198.7c-0.9,6.9-0.5,6.4-1.9,13.2c-0.7,3.3-1.6,6.8-3.9,9.4l1.1-14.4L518.3,198.7z"></path> <polygon class="st16" points="546.2,235.2 547.3,232.1 544.6,230.3 511.3,227.6 508.9,232 509.9,235.7 "></polygon> <path class="st17" d="M545,208.8c0,0,0.2,0.7,0.7,1.7c0.5,1,1.2,2.4,2.1,3.9c0.9,1.5,1.8,2.8,2.4,3.8c0.7,0.9,1.1,1.5,1.1,1.5 c0,0-0.3-0.6-0.9-1.6c-0.6-1-1.4-2.3-2.3-3.8c-0.9-1.5-1.7-2.9-2.2-3.9C545.4,209.4,545,208.7,545,208.8"></path> <path class="st17" d="M548.2,214.5c-0.1,0-0.2,1.2,0.2,2.5c0.4,1.4,1.2,2.2,1.3,2.2c0.1-0.1-0.5-1-0.9-2.3 C548.3,215.6,548.3,214.5,548.2,214.5"></path> <path class="st17" d="M512.3,184.3c0,0.1,0.6,0.3,1.5,0.8c0.9,0.6,2.1,1.5,2.9,2.9c0.9,1.4,1.3,2.8,1.5,3.8 c0.2,1.1,0.1,1.7,0.2,1.7c0,0,0.2-0.7,0.1-1.8c-0.1-1.1-0.5-2.6-1.4-4c-0.9-1.4-2.2-2.4-3.1-2.9C513,184.4,512.3,184.3,512.3,184.3 "></path> <path class="st17" d="M541.9,222.7c0.1,0,1.7-6.9,3.6-15.5c1.9-8.6,3.4-15.6,3.3-15.6c-0.1,0-1.7,6.9-3.6,15.5 C543.3,215.7,541.8,222.7,541.9,222.7"></path> <path class="st17" d="M493.8,213.8c0.1,0.1,0.7-0.7,1.6-1.5c0.9-0.8,1.6-1.5,1.6-1.6c-0.1-0.1-0.9,0.4-1.8,1.3 C494.2,212.9,493.7,213.7,493.8,213.8"></path> <path class="st17" d="M506,222.5c0,0,0.2-0.3,0.6-0.9c0.3-0.6,0.8-1.5,1.4-2.6c1.1-2.2,2.7-5.2,4.3-8.6c1.7-3.4,3.2-6.4,4.3-8.6 c0.5-1.1,1-1.9,1.3-2.6c0.3-0.6,0.5-1,0.5-1c0,0-0.2,0.3-0.6,0.9c-0.4,0.6-0.8,1.5-1.4,2.5c-1.2,2.2-2.8,5.2-4.4,8.6 c-1.6,3.4-3.1,6.4-4.3,8.7c-0.5,1.1-1,1.9-1.3,2.6C506.1,222.2,505.9,222.5,506,222.5"></path> <path class="st17" d="M519,213.3c0,0,0,0.1,0,0.2c0,0.2,0,0.4,0.1,0.7c0.1,0.6,0.4,1.4,0.9,2.3c1,1.9,3.2,4.1,6.1,5.4 c3,1.3,5.9,1.7,8,2c1,0.1,1.9,0.2,2.5,0.2s0.9,0,0.9,0c0,0-0.3-0.1-0.9-0.2c-0.7-0.1-1.5-0.2-2.5-0.3c-2.1-0.3-5-0.8-7.9-2.1 c-2.9-1.3-5-3.4-6.1-5.2C519.2,214.6,519.1,213.2,519,213.3"></path> <path class="st17" d="M526.3,230.9c0,0.1,4.5,0.5,10,0.9c5.6,0.4,10.1,0.6,10.1,0.5c0-0.1-4.5-0.5-10-0.9 C530.8,231,526.3,230.8,526.3,230.9"></path> <path class="st17" d="M520.5,228.2c-0.1,0-0.5,1.5-0.7,3.4c-0.2,1.9-0.1,3.5,0,3.5c0.1,0,0.1-1.6,0.3-3.4 C520.3,229.7,520.6,228.2,520.5,228.2"></path> <path class="st17" d="M518.2,226c0,0-0.2,0.5-0.3,1.4c-0.1,0.9-0.2,2.1-0.1,3.4c0.1,1.3,0.3,2.5,0.6,3.3c0.2,0.8,0.4,1.3,0.5,1.3 c0.1,0-0.5-2.1-0.7-4.7C518,228.1,518.3,226,518.2,226"></path> <path class="st17" d="M519.7,180.3c0,0.1,3.3,0,7.3-0.2c4-0.2,7.2-0.5,7.2-0.6c0-0.1-3.3,0-7.3,0.2 C522.9,180,519.7,180.2,519.7,180.3"></path> <path class="st17" d="M520.5,180.1c0,0-0.2,0-0.5,0.1c-0.3,0.1-0.8,0.1-1.4,0.2c-0.6,0.1-1.3,0.2-2.1,0.4c-0.8,0.1-1.8,0.4-2.7,0.8 c-0.9,0.5-1.9,1.1-2.9,1.9c-0.9,0.8-1.8,1.8-2.5,3.1c-1.2,2.5-2.5,5.3-3.9,8.3c-2.8,5.9-5.3,11.2-7.1,15c-0.9,1.9-1.7,3.4-2.2,4.5 c-0.3,0.5-0.5,0.9-0.6,1.2c-0.1,0.3-0.2,0.4-0.2,0.4c0,0,0-0.2,0.2-0.4c0.1-0.3,0.3-0.7,0.6-1.3c0.5-1.1,1.2-2.7,2.1-4.6 c1.8-3.9,4.3-9.2,7-15.1c1.4-2.9,2.7-5.7,4-8.3c0.7-1.2,1.6-2.3,2.6-3.1c1-0.8,2-1.4,3-1.9c1-0.5,1.9-0.7,2.8-0.8 c0.8-0.1,1.6-0.2,2.2-0.3c0.6-0.1,1.1-0.1,1.4-0.1C520.4,180.1,520.5,180.1,520.5,180.1"></path> <path class="st18" d="M549.9,159.9c0.8-3.2-1.1-6.9-4.2-8.1c-0.3-0.1-0.6-0.2-0.8-0.5c-0.1-0.2-0.2-0.5-0.2-0.7 c-0.2-2-1.6-3.9-3.5-4.6c-0.9-0.4-1.8-0.5-2.8-0.4c-0.5-1-1.1-1.8-2.1-2.5c-2.2-1.3-5.1-1.4-7.2,0c-1.5-0.7-2.8-1.7-4.3-2.4 c-2-1-4.5-1.6-6.5-0.6c-1.5,0.7-2.4,2.2-3.8,3c-2,1.2-4.7,0.9-5.7,3.9c-0.3,1-0.3,2.1,0,3.2c1.4,4,6.4,5.6,10,3.9 c0.1,0.7-0.6,2.2,0.1,4.4c0.2,0.7,0.3,1.7,1.4,1.8c1.1-1.3,2.8-1.9,4.3-0.9c1.4,0.9,2,3,1.2,4.5c-0.5,1.1-1.8,2.1-3,2.3 c-1.1,0.2-1.9,1.3-1.9,2.4c-0.1,0.3-0.1,0.6-0.1,0.9c-1.1-0.9-2.8,0.2-3.5,1.5c-0.9,1.6-1.3,3.5-1,5.4c0,0,2,0.7,3,1.2 c3,1.6,6.5,2.2,9.8,2.1c3.4-0.1,6.8-0.7,10.1-1.3c-0.1-0.8-0.2-1.6-0.4-2.4c0.7,0.4,1.1,1.2,1.8,1.7c0.9,0.6,2.1,0.2,3.2-0.2 c3-1.2,6.4-2.6,7.5-5.7c-0.9-0.3-1.6-1.3-1.5-2.3c1.2,0.4,2.7,0.7,3.6-0.2c0.3-0.3,0.5-0.7,0.7-1.2c0.8-1.8,1.5-3.6,2.3-5.3 C554.7,160.9,552.3,160,549.9,159.9"></path> <path class="st19" d="M55.3,347.9c-0.1,0-0.2-17.2-0.3-38.5c-0.1-21.3,0-38.5,0.1-38.5c0.1,0,0.2,17.2,0.3,38.5 C55.4,330.7,55.4,347.9,55.3,347.9"></path> <path class="st19" d="M67,304.8c0,0,0,0.1-0.1,0.4c-0.1,0.3-0.3,0.7-0.5,1.1c-0.1,0.2-0.2,0.5-0.3,0.8c-0.1,0.3-0.2,0.6-0.3,1 c-0.1,0.4-0.3,0.7-0.4,1.1c-0.1,0.4-0.3,0.8-0.4,1.3c-0.6,1.8-1,4-1.5,6.4c-0.4,2.5-0.7,5.2-0.8,8c-0.3,5.7,0.1,10.9,0.4,14.7 c0.2,1.9,0.3,3.4,0.5,4.4c0.1,0.5,0.1,0.9,0.1,1.2c0,0.3,0,0.4,0,0.4c0,0,0-0.1-0.1-0.4c-0.1-0.3-0.1-0.7-0.2-1.2 c-0.2-1-0.4-2.6-0.6-4.4c-0.4-3.7-0.8-9-0.5-14.7c0.1-2.9,0.4-5.6,0.8-8.1c0.5-2.5,0.9-4.7,1.6-6.4c0.1-0.4,0.3-0.9,0.4-1.3 c0.2-0.4,0.3-0.8,0.4-1.1c0.1-0.3,0.3-0.7,0.4-1c0.1-0.3,0.3-0.6,0.4-0.8c0.2-0.4,0.4-0.8,0.5-1.1C66.9,304.9,66.9,304.8,67,304.8"></path> <path class="st19" d="M65.6,290.8c0,0,0,0.2-0.2,0.6c-0.1,0.4-0.3,0.9-0.5,1.6c-0.1,0.4-0.3,0.7-0.4,1.2c-0.1,0.4-0.3,0.9-0.4,1.4 c-0.3,1-0.7,2.1-1,3.4c-0.2,0.6-0.3,1.3-0.5,2c-0.2,0.7-0.3,1.4-0.5,2.2c-0.4,1.5-0.6,3.1-1,4.8c-0.6,3.4-1.1,7.2-1.4,11.2 c-0.3,4-0.5,7.8-0.5,11.3c0,3.5,0,6.6,0.2,9.2c0,1.3,0.1,2.5,0.2,3.5c0.1,1,0.1,1.9,0.2,2.7c0.1,0.7,0.1,1.3,0.1,1.7 c0,0.4,0,0.6,0,0.6c0,0,0-0.2-0.1-0.6c-0.1-0.4-0.1-1-0.2-1.7c-0.1-0.7-0.2-1.6-0.3-2.7c-0.1-1-0.2-2.2-0.3-3.5 c-0.2-2.6-0.2-5.8-0.3-9.2c0-3.5,0.2-7.3,0.5-11.3c0.4-4,0.9-7.8,1.5-11.2c0.3-1.7,0.6-3.3,1-4.8c0.2-0.8,0.3-1.5,0.5-2.2 c0.2-0.7,0.4-1.4,0.5-2c0.3-1.3,0.7-2.4,1-3.4c0.2-0.5,0.3-1,0.5-1.4c0.2-0.4,0.3-0.8,0.4-1.1c0.3-0.7,0.5-1.2,0.6-1.6 C65.5,291,65.6,290.8,65.6,290.8"></path> <path class="st19" d="M52,351c0,0,0-0.1,0-0.2c0-0.2,0-0.4,0-0.6c0-0.5-0.1-1.3-0.2-2.3c-0.1-2-0.3-4.9-0.5-8.4 c-0.5-7.1-1.1-16.9-2.3-27.7c-0.6-5.4-1.3-10.5-2.1-15.1c-0.4-2.3-0.7-4.5-1.1-6.6c-0.4-2.1-0.8-4-1.1-5.7c-0.3-1.7-0.7-3.3-1-4.7 c-0.3-1.4-0.6-2.6-0.8-3.5c-0.2-0.9-0.4-1.7-0.5-2.2c-0.1-0.2-0.1-0.4-0.1-0.6c0-0.1,0-0.2,0-0.2c0,0,0,0.1,0.1,0.2 c0,0.1,0.1,0.3,0.2,0.6c0.1,0.5,0.4,1.3,0.6,2.2c0.3,1,0.6,2.1,0.9,3.5c0.3,1.4,0.7,2.9,1.1,4.7c0.4,1.7,0.8,3.6,1.2,5.7 c0.4,2,0.8,4.3,1.2,6.6c0.8,4.6,1.5,9.8,2.1,15.2c1.2,10.8,1.8,20.6,2.2,27.7c0.2,3.5,0.3,6.4,0.4,8.4c0,1,0.1,1.7,0.1,2.3 c0,0.2,0,0.4,0,0.6C52,350.9,52,351,52,351"></path> <rect x="31" y="342" class="st20" width="52.4" height="7.2"></rect> <path class="st21" d="M54.9,279.2c-0.2-2.4-2.7-4.3-5.2-4.3c-2.5,0-4.7,1.4-6.2,3.4s-2.3,4.3-3,6.7c-1.7,5.8-2.6,11.8-1.8,17.8 c0.7,5.9,3.1,11.8,7.4,16c0.7,0.7,1.6,1.4,2.5,1.2c0.5-0.1,0.9-0.5,1.3-0.8c8.4-7.6,13.2-18.9,12.9-30.2c-0.1-2.3-0.4-4.6-1.6-6.5 C59.9,280.4,57,278.4,54.9,279.2"></path> <polygon class="st20" points="35.9,346.8 43.4,384.1 71.4,384.1 78.7,349.2 "></polygon> <polygon class="st11" points="35.9,380.6 39.9,386.1 73.9,386.1 78.7,380.6 "></polygon> <path class="st5" d="M36.5,259.6c-1.2,2.1-2.3,4.2-3.5,6.3c-0.1,0.1-0.2,0.3-0.4,0.3c-0.2,0-0.3-0.2-0.4-0.3c-3-4.7-6.1-9.3-9.1-14 l2.1-1.2L36.5,259.6z"></path> <path class="st19" d="M36.5,259.6c-1.2,2.1-2.3,4.2-3.5,6.3c-0.1,0.1-0.2,0.3-0.4,0.3c-0.2,0-0.3-0.2-0.4-0.3 c-3-4.7-6.1-9.3-9.1-14l2.1-1.2L36.5,259.6z"></path> <path class="st21" d="M55.1,270.9c-10.4-6.1-20.8-12.3-31.2-18.4c-0.3-0.2-0.7-0.4-0.8-0.8c-0.1-0.5,0.2-0.9,0.6-1.3 c4.3-4.4,10.5-7,16.7-6.5c6.1,0.4,12.1,4,15.1,9.4C58.4,258.7,58.5,265.8,55.1,270.9"></path> <path class="st19" d="M28.4,246.6c0,0,0.1,0,0.4-0.1c0.3,0,0.7-0.1,1.2-0.1c1,0,2.5,0,4.3,0.3c1.8,0.3,3.9,0.9,6.2,1.9 c2.2,1,4.5,2.4,6.6,4.3c2.1,1.9,3.7,4,4.9,6.2c1.2,2.1,2,4.2,2.5,5.9c0.5,1.8,0.7,3.2,0.8,4.3c0.1,0.5,0,0.6,0,0.9 c0,0.3-0.2,0.7-0.2,0.7c0,0,0.2-0.6,0-1.6c-0.1-1-0.4-2.5-0.9-4.2c-1-3.5-3.3-8.2-7.4-11.9c-4.1-3.7-9-5.5-12.6-6.2 c-1.8-0.3-3.3-0.4-4.3-0.5C28.9,246.6,28.4,246.6,28.4,246.6"></path> <path class="st19" d="M50.8,258.2c0,0-0.6,0.3-1.6,0.7c-1,0.4-2.4,0.9-3.9,1.4c-1.6,0.5-3,0.9-4,1.1c-1,0.3-1.7,0.4-1.7,0.3 c0,0,0.6-0.3,1.6-0.6c1.1-0.4,2.5-0.8,4-1.2c1.5-0.5,2.8-0.9,4-1.3C50.2,258.3,50.8,258.1,50.8,258.2"></path> <path class="st19" d="M45.9,245c0.1,0,0.3,1.5,0.4,3.5c0.1,1.9-0.1,3.5-0.2,3.5c-0.1,0-0.1-1.6-0.2-3.5 C45.9,246.6,45.8,245,45.9,245"></path> <path class="st19" d="M23.6,252.1c0,0,0.8-0.4,2.3-0.8c1.4-0.4,3.4-1,5.6-1.5c2.2-0.5,4.2-0.9,5.7-1.2c1.5-0.3,2.4-0.4,2.4-0.3 c0,0.1-0.9,0.3-2.3,0.6c-1.4,0.3-3.4,0.8-5.6,1.3c-2.2,0.5-4.2,1-5.6,1.4C24.5,252,23.6,252.2,23.6,252.1"></path> <path class="st21" d="M41.9,273.9c-2.7-2-5.5-2.4-8.9-2.3c-3.4,0.1-6.6,1.2-9.7,2.5c-5.3,2.3-10.2,5.7-13.3,10.5 c-3.1,4.8-4.2,11.2-1.9,16.4c0.2,0.5,0.5,1.1,1.1,1.3c0.6,0.2,1.2,0.1,1.8-0.1c6-2,12-3.9,17.5-7c5.5-3.1,10.5-7.3,13.5-12.9 c0.7-1.3,1.3-2.8,1.4-4.3C43.4,276.5,43,274.9,41.9,273.9"></path> <path class="st19" d="M42,273.2c0,0-0.1,0.1-0.4,0.2c-0.3,0.1-0.7,0.3-1.3,0.4c-0.3,0.1-0.6,0.2-0.9,0.3c-0.3,0.1-0.7,0.3-1.1,0.4 c-0.8,0.3-1.6,0.6-2.6,1.1c-0.5,0.2-1,0.4-1.5,0.7c-0.5,0.2-1,0.5-1.6,0.8c-1.1,0.5-2.2,1.2-3.3,1.9c-2.3,1.4-4.7,3.2-7.1,5.2 c-2.3,2.1-4.4,4.3-6.1,6.4c-0.8,1.1-1.6,2.1-2.3,3.1c-0.3,0.5-0.7,1-1,1.4c-0.3,0.5-0.6,0.9-0.8,1.4c-0.6,0.9-1,1.7-1.4,2.4 c-0.2,0.4-0.4,0.7-0.5,1c-0.2,0.3-0.3,0.6-0.4,0.9c-0.2,0.5-0.4,0.9-0.6,1.2c-0.1,0.3-0.2,0.4-0.2,0.4c0,0,0-0.2,0.2-0.4 c0.1-0.3,0.3-0.7,0.5-1.2c0.1-0.3,0.2-0.6,0.4-0.9c0.2-0.3,0.3-0.7,0.5-1c0.4-0.7,0.8-1.6,1.3-2.4c0.3-0.4,0.5-0.9,0.8-1.4 c0.3-0.5,0.6-1,1-1.5c0.7-1,1.5-2,2.3-3.1c1.7-2.1,3.8-4.3,6.1-6.4c2.4-2.1,4.8-3.8,7.1-5.3c1.2-0.7,2.3-1.4,3.4-1.9 c0.5-0.3,1.1-0.6,1.6-0.8c0.5-0.2,1-0.4,1.5-0.6c0.9-0.4,1.8-0.7,2.6-1c0.4-0.1,0.7-0.3,1.1-0.4c0.3-0.1,0.6-0.2,0.9-0.3 c0.5-0.2,0.9-0.3,1.3-0.4C41.8,273.3,42,273.2,42,273.2"></path> <path class="st19" d="M21,284.6c0,0.1-2.9,1-6.5,2.1c-3.6,1.1-6.6,1.8-6.6,1.7c0-0.1,2.9-1,6.5-2.1C18,285.3,21,284.5,21,284.6"></path> <path class="st19" d="M20.8,299c-0.1,0-0.1-0.8-0.1-2c0-1.3,0-3,0-4.9c0.1-1.9,0.2-3.7,0.3-4.9c0.1-1.3,0.2-2,0.3-2 c0.1,0,0,0.8,0,2c0,1.4-0.1,3.1-0.2,4.9c0,1.8-0.1,3.5-0.1,4.9C20.8,298.2,20.8,299,20.8,299"></path> <path class="st19" d="M33.1,292.7c-0.1,0-0.4-3.5-0.7-7.9c-0.3-4.4-0.5-7.9-0.4-7.9c0.1,0,0.4,3.5,0.7,7.9 C33,289.1,33.2,292.7,33.1,292.7"></path> <path class="st19" d="M17.7,276.6c0-0.1,0.8-0.1,2.1-0.1c1.3,0,3.1,0,5,0.1c2,0.1,3.7,0.1,5,0.2c1.3,0.1,2.1,0.1,2.1,0.2 c0,0.1-0.8,0.1-2.1,0.1c-1.3,0-3.1,0-5-0.1c-2-0.1-3.7-0.1-5-0.2C18.5,276.7,17.7,276.6,17.7,276.6"></path> <path class="st19" d="M47.3,319.5c0,0,0-0.1,0-0.4c0-0.3,0-0.7-0.1-1.2c0-1-0.1-2.6,0-4.4c0-1.9,0.2-4.1,0.4-6.5 c0.2-2.5,0.6-5.1,1.1-8c0.5-2.8,1.1-5.4,1.8-7.8c0.7-2.4,1.3-4.5,1.9-6.3c0.6-1.8,1.2-3.2,1.6-4.1c0.2-0.5,0.3-0.8,0.5-1.1 c0.1-0.3,0.2-0.4,0.2-0.4c0,0,0,0.1-0.1,0.4c-0.1,0.3-0.2,0.7-0.4,1.1c-0.4,1-0.9,2.4-1.5,4.2c-0.6,1.8-1.2,3.9-1.9,6.3 c-0.6,2.4-1.2,5-1.7,7.8c-0.5,2.8-0.9,5.5-1.1,7.9c-0.2,2.4-0.4,4.7-0.5,6.5c-0.1,1.9-0.1,3.4-0.1,4.4c0,0.5,0,0.9,0,1.2 C47.4,319.4,47.3,319.5,47.3,319.5"></path> <path class="st19" d="M49,299.1c0,0-0.4,0.6-1.2,1.4c-0.8,0.8-2,1.9-3.3,3c-1.3,1.1-2.5,2.1-3.4,2.8c-0.9,0.7-1.5,1.1-1.5,1.1 c0,0,0.5-0.5,1.3-1.3c1-0.8,2.1-1.8,3.4-2.9c1.2-1.1,2.4-2.1,3.3-2.9C48.4,299.5,48.9,299.1,49,299.1"></path> <path class="st19" d="M58.8,307c0,0-0.5-0.7-1.3-1.8c-0.9-1.2-1.9-2.8-3.1-4.5c-1.2-1.7-2.3-3.2-3.1-4.5c-0.8-1.1-1.3-1.8-1.3-1.9 c0,0,0.6,0.6,1.5,1.7c0.9,1.1,2,2.6,3.2,4.4c1.2,1.8,2.3,3.4,3,4.6C58.5,306.3,58.9,307,58.8,307"></path> <path class="st19" d="M53.7,282c0.1,0.1-3.2,2.3-7.3,4.9c-4.1,2.6-7.5,4.7-7.5,4.6c-0.1-0.1,3.2-2.3,7.3-4.9 C50.2,284,53.6,282,53.7,282"></path> <path class="st19" d="M62.9,292c-0.1,0.1-2.3-2-5-4.6c-2.7-2.6-4.8-4.8-4.7-4.8c0.1-0.1,2.3,2,5,4.6S63,291.9,62.9,292"></path> <path class="st21" d="M65.2,291.8l2.8-0.2c2-0.2,3.9-0.8,5.7-1.7c0.9-0.5,1.7-1,2.6-1.3c3.5-1.4,7.4-1.1,11.1-1.3 c6.1-0.3,12.2-1.9,17.7-4.5c0.3-0.2,0.6-0.4,0.8-0.7c0.6-1.1-0.5-2-1.4-2.6c-4.7-2.9-9.6-5.9-14.9-7.3c-5.4-1.4-11.5-1.2-16.1,2 C68.1,277.7,66.1,285.3,65.2,291.8"></path> <path class="st19" d="M106,281.6c0,0-0.2-0.1-0.5-0.2c-0.3-0.2-0.8-0.4-1.3-0.7c-1.2-0.6-2.8-1.5-4.9-2.5c-2.1-1-4.7-2.1-7.6-2.9 c-3-0.8-6.4-1.3-9.9-0.8c-3.5,0.5-6.7,1.8-9,3.9c-2.3,2-3.7,4.5-4.7,6.6c-1,2.1-1.6,3.9-2,5.1c-0.2,0.6-0.4,1.1-0.5,1.4 c-0.1,0.3-0.2,0.5-0.2,0.5c0,0,0-0.2,0.1-0.5c0.1-0.4,0.3-0.8,0.4-1.4c0.4-1.2,1-3.1,1.9-5.2c1-2.1,2.4-4.6,4.7-6.7 c2.3-2.1,5.6-3.5,9.2-4c3.6-0.5,7,0,10,0.8c3,0.8,5.6,2,7.6,3c2.1,1,3.7,2,4.9,2.6c0.5,0.3,1,0.6,1.3,0.8 C105.8,281.5,106,281.6,106,281.6"></path> <path class="st19" d="M99.2,285.3c-0.1,0.1-3.7-2.3-8.2-5.3c-4.5-3-8.1-5.5-8-5.6s3.7,2.3,8.2,5.3 C95.7,282.6,99.3,285.2,99.2,285.3"></path> <path class="st19" d="M95.3,274.1c0,0.1-1.2,0.4-2.7,0.5c-1.5,0.1-2.7,0-2.7,0c0-0.1,1.2-0.2,2.7-0.3 C94.1,274.2,95.3,274,95.3,274.1"></path> <path class="st19" d="M79.2,272c0.1,0-0.5,0.9-1.2,1.9c-0.8,1-1.4,1.8-1.5,1.7s0.5-0.9,1.2-1.9C78.4,272.8,79.1,272,79.2,272"></path> <path class="st19" d="M82.5,287.4c0,0-0.7-0.3-1.8-1c-1.1-0.6-2.5-1.6-4-2.7c-1.5-1.1-2.9-2.2-3.9-2.9c-1-0.8-1.6-1.3-1.5-1.3 c0,0,0.7,0.4,1.7,1.1c1.1,0.8,2.4,1.8,3.9,2.8c1.5,1.1,2.9,2.1,4,2.8C81.9,286.9,82.5,287.4,82.5,287.4"></path> <path class="st21" d="M69.4,303.8c-2.7-0.7-5.9,1.9-6.4,4.6c-0.6,2.7,0.5,5.5,1.7,8c2.6,5.5,6.3,10.7,11.1,14.5 c4.8,3.8,10.8,6.3,17,6.2c-1.1-5.3,0.3-10.8-0.3-16.1c-0.6-4.7-2.7-9.1-6.1-12.4c-3.3-3.3-7.8-5.4-12.5-6 C72,302.5,70.1,302.2,69.4,303.8"></path> <path class="st19" d="M92.7,337.2c0,0-0.1-0.1-0.4-0.2c-0.2-0.1-0.6-0.3-1-0.7c-0.8-0.6-1.8-1.9-2.7-3.5c-0.4-0.8-0.9-1.7-1.4-2.7 c-0.5-1-0.9-2.1-1.4-3.2c-0.5-1.1-1.1-2.3-1.8-3.4c-0.7-1.1-1.5-2.2-2.4-3.3c-1.8-2.2-3.8-4-5.5-5.8c-1.7-1.8-3.2-3.5-4.2-5 c-1.1-1.6-1.7-2.9-2.1-3.9c-0.2-0.5-0.3-0.9-0.4-1.2c-0.1-0.3-0.1-0.4-0.1-0.4c0,0,0.2,0.5,0.6,1.5c0.4,1,1.1,2.3,2.1,3.8 c1.1,1.5,2.5,3.2,4.2,5c1.7,1.8,3.7,3.6,5.6,5.8c0.9,1.1,1.8,2.2,2.5,3.4c0.7,1.2,1.3,2.3,1.8,3.5c0.5,1.1,1,2.2,1.4,3.2 c0.4,1,0.9,1.9,1.3,2.7c0.8,1.7,1.7,2.9,2.5,3.6C92.2,336.9,92.7,337.1,92.7,337.2"></path> <path class="st19" d="M78.8,332.8c0,0,0-0.7,0.2-1.8c0.2-1.1,0.6-2.6,1-4.3c0.5-1.7,1-3.1,1.4-4.2c0.4-1.1,0.7-1.7,0.7-1.7 c0.1,0-0.2,0.7-0.5,1.8c-0.3,1.1-0.8,2.5-1.3,4.2c-0.5,1.6-0.8,3.1-1.1,4.2C79,332.1,78.8,332.8,78.8,332.8"></path> <path class="st19" d="M92.2,319.9c0,0.1-0.7-0.1-1.9-0.4c-1.2-0.3-2.8-0.7-4.5-1.1c-1.8-0.4-3.4-0.7-4.6-0.9 c-1.2-0.2-1.9-0.4-1.9-0.4c0,0,0.7,0,1.9,0.2c1.2,0.2,2.8,0.4,4.6,0.8c1.8,0.4,3.4,0.9,4.5,1.2C91.5,319.5,92.2,319.8,92.2,319.9"></path> <path class="st19" d="M68.8,323.6c0,0,0.1-0.8,0.3-2.1c0.2-1.3,0.6-3,1.1-5c0.5-1.9,1-3.6,1.5-4.9c0.4-1.2,0.7-2,0.8-2 c0.1,0-0.2,0.8-0.5,2c-0.4,1.3-0.8,3-1.3,4.9c-0.5,1.9-0.9,3.7-1.2,4.9C69.1,322.8,68.9,323.6,68.8,323.6"></path> <path class="st19" d="M86,308.6c0,0.1-3.4-0.2-7.5-0.6c-4.1-0.4-7.5-0.9-7.4-1c0-0.1,3.4,0.2,7.5,0.6C82.7,308,86,308.5,86,308.6"></path> <path class="st11" d="M83.6,349.2c0,0.1-11.8,0.2-26.3,0.2c-14.5,0-26.3-0.1-26.3-0.2s11.8-0.2,26.3-0.2 C71.8,349,83.6,349.1,83.6,349.2"></path> <path class="st11" d="M75.4,364.4c0,0.1-7.9,0.2-17.7,0.2c-9.8,0-17.7-0.1-17.7-0.2c0-0.1,7.9-0.2,17.7-0.2 C67.4,364.2,75.4,364.3,75.4,364.4"></path> <path class="st11" d="M75.1,366.5c0,0.1-7.8,0.2-17.4,0.2c-9.6,0-17.4-0.1-17.4-0.2c0-0.1,7.8-0.2,17.4-0.2 C67.3,366.3,75.1,366.4,75.1,366.5"></path> <path class="st11" d="M75.7,362.6c0,0.1-8.2,0.2-18.3,0.2c-10.1,0-18.3-0.1-18.3-0.2c0-0.1,8.2-0.2,18.3-0.2 C67.5,362.4,75.7,362.5,75.7,362.6"></path> <path class="st6" d="M540.2,136.9l4.9-11.2c-3.1-4-5.2-8.9-5.7-14.3c-1.7-15.6,9.6-29.5,25.2-31.2c15.6-1.7,29.5,9.6,31.2,25.2 c1.7,15.6-9.6,29.5-25.2,31.2c-6.5,0.7-12.7-0.9-17.9-4.1l0,0L540.2,136.9z"></path> <path class="st3" d="M577.8,117l1-1.3l4.9,3.5c0,0,1.4-3.7-2.5-6.2c-2.2-1.4-4-0.8-5.1-0.2l-13.4-10.5c0.3-1.2,0.3-3.3-1.8-5 c-3.5-2.9-6.7-0.4-6.7-0.4l4.9,3.6l-0.9,1.2l0,0l-1,1.3l-4.9-3.5c0,0-1.4,3.7,2.5,6.2c2.2,1.4,4,0.8,5.1,0.2l0,0l13.4,10.5 c-0.3,1.2-0.3,3.3,1.8,5c3.6,2.9,6.7,0.4,6.7,0.4l-4.9-3.6L577.8,117L577.8,117z"></path> <path class="st15" d="M605,386.2c0,0.1-135.4,0.2-302.5,0.2C135.4,386.5,0,386.4,0,386.2c0-0.1,135.4-0.2,302.5-0.2 C469.6,386,605,386.1,605,386.2"></path> </g> </svg> 